<svg xmlns="http://www.w3.org/2000/svg" xmlns:xlink="http://www.w3.org/1999/xlink"><symbol id="arr-select">
    <path d="M1 1l3.646 3.646a.5.5 0 010 .708L1 9" stroke-width="2"/>
</symbol><symbol id="door1">
    <path fill-rule="evenodd" clip-rule="evenodd" d="M1.281 1.27v1.488h30.67V1.27H1.282zM0 .682C0 .306.308 0 .689 0h31.855c.38 0 .689.306.689.682v2.663a.686.686 0 01-.689.682h-.432V6.39a.686.686 0 01-.689.682h-.432v42.293c0 .35-.287.635-.64.635a.638.638 0 01-.642-.635V7.072h-1.841v42.134a.797.797 0 01-.801.794H6.327a.797.797 0 01-.8-.8l.159-21.735L5.53 7.072H3.844v42.293c0 .35-.287.635-.64.635a.638.638 0 01-.641-.635V7.072H2.13a.686.686 0 01-.689-.682V4.027H.69A.686.686 0 010 3.345V.682zm2.723 3.345v1.776H30.83V4.027H2.723zm4.089 3.045l.15 19.758h5.53v1.27h-5.53l-.15 20.63h19.774V28.1h-5.365v-1.27h5.365V7.072H6.812zM10.01 9.85v15.235a.638.638 0 01-.64.635.638.638 0 01-.641-.635V9.374c0-.439.358-.794.8-.794h13.774c.442 0 .801.355.801.793v15.711a.638.638 0 01-.64.635.638.638 0 01-.641-.635V9.85H10.01zm-.64 19.838c.353 0 .64.284.64.634v15.711h12.813v-15.71c0-.351.287-.635.64-.635.354 0 .641.284.641.634V46.51a.797.797 0 01-.8.793H9.528a.797.797 0 01-.8-.793V30.32c0-.35.287-.634.64-.634z"/>
    <path fill-rule="evenodd" clip-rule="evenodd" d="M19.18 28.839c.653-.44.853-.902.853-1.235 0-.332-.2-.795-.853-1.235-.643-.433-1.608-.744-2.738-.744s-2.095.311-2.739.744c-.653.44-.853.903-.853 1.235 0 .333.2.795.853 1.235.644.433 1.608.744 2.739.744 1.13 0 2.095-.31 2.738-.744zm-2.738 2.064c2.704 0 4.897-1.477 4.897-3.299 0-1.822-2.193-3.298-4.897-3.298-2.705 0-4.898 1.476-4.898 3.298s2.193 3.299 4.898 3.299z"/>
</symbol><symbol id="door2">
    <path fill-rule="evenodd" clip-rule="evenodd" d="M1.22 1.212v47.576h1.905v-45a.76.76 0 01.762-.758h20.957c.421 0 .763.34.763.758v45h1.829V1.212H1.219zm23.167 47.576v-3.636H4.344v3.636h20.043zM4.344 43.939h3.43V27.576h-3.43v16.363zm0-17.575h3.43V4.242h-3.43v22.122zM8.993 4.242V43.94h10.67V4.242H8.992zm11.889 0V43.94h3.505V4.242h-3.505zM0 .758A.76.76 0 01.762 0h27.13a.76.76 0 01.763.758v48.484a.76.76 0 01-.762.758H.763A.76.76 0 010 49.242V.758z"/>
</symbol><symbol id="door3">
    <path fill-rule="evenodd" clip-rule="evenodd" d="M.275.641C.275.287.593 0 .985 0h58.938c.392 0 .71.287.71.641 0 .354-.318.641-.71.641H38.762v48.077c0 .354-.318.641-.71.641-.392 0-.71-.287-.71-.641V1.282H5.786v48.077c0 .354-.318.641-.71.641-.392 0-.71-.287-.71-.641V1.282H.985c-.392 0-.71-.287-.71-.641zm9.298 4.965c0-.442.397-.801.887-.801h22.58c.49 0 .887.359.887.801v43.593c0 .442-.397.801-.887.801H10.46c-.49 0-.887-.359-.887-.801V5.606zm1.42.48v42.632h21.514V6.087H10.993zm4.62 17.714c.393 0 .71.287.71.641v6.816c0 .354-.317.641-.71.641-.392 0-.71-.287-.71-.64V24.44c0-.354.318-.64.71-.64z"/>
    <path fill-rule="evenodd" clip-rule="evenodd" d="M58.478 4.902c0 1.083-1.029 1.96-2.297 1.96-1.269 0-2.297-.877-2.297-1.96s1.028-1.96 2.297-1.96c1.268 0 2.297.877 2.297 1.96zm-6.185 0c0 1.083-1.028 1.96-2.297 1.96-1.268 0-2.297-.877-2.297-1.96s1.029-1.96 2.297-1.96c1.269 0 2.297.877 2.297 1.96zm-2.297 1.056c.683 0 1.237-.473 1.237-1.056 0-.583-.554-1.056-1.237-1.056s-1.236.473-1.236 1.056c0 .583.553 1.056 1.236 1.056zm6.185 0c.683 0 1.236-.473 1.236-1.056 0-.583-.553-1.056-1.236-1.056-.683 0-1.237.473-1.237 1.056 0 .583.553 1.056 1.237 1.056z"/>
</symbol><symbol id="door4">
    <path fill-rule="evenodd" clip-rule="evenodd" d="M0 .776A.78.78 0 01.781 0h48.737c.43 0 .78.348.78.776V49.38c0 .343-.28.621-.624.621a.623.623 0 01-.625-.621V6.056H33.741v40.062c0 .429-.35.776-.781.776h-5.936v2.33a.78.78 0 01-.781.776H.78a.779.779 0 01-.78-.776V.776zm27.024 44.876h5.467v-9.394h-5.467v9.394zm0-10.636h5.467V21.429h-5.467v13.587zm0-14.83h5.467V6.056h-5.467v14.13zm-1.25-14.13H5.78v8.928h19.994V6.056zm0 10.17H5.78v13.432h19.994V16.227zm0 14.675H5.78v17.857h19.994V30.9zM4.53 48.758V6.056H1.25v42.702h3.28zM1.25 4.814h47.799V1.242h-47.8v3.572z"/>
</symbol><symbol id="door5">
    <path fill-rule="evenodd" clip-rule="evenodd" d="M15.686 19.521a7.378 7.378 0 013.64-3.145 7.418 7.418 0 014.814-.241 7.388 7.388 0 013.939 2.767 7.332 7.332 0 01-.37 9.064 7.395 7.395 0 01-4.152 2.44 7.418 7.418 0 01-4.779-.63 7.37 7.37 0 01-3.371-3.43l-1.114.526a8.6 8.6 0 003.934 4.002 8.655 8.655 0 005.576.734 8.628 8.628 0 004.844-2.846 8.554 8.554 0 00.432-10.577 8.62 8.62 0 00-4.596-3.228 8.657 8.657 0 00-5.617.28 8.609 8.609 0 00-4.248 3.67l1.068.614zm6.084 19.974a1.753 1.753 0 01-.39-2.93 1.772 1.772 0 012.846.85 1.753 1.753 0 01-.814 2.014.612.612 0 00-.226.838c.17.293.547.394.842.225a2.99 2.99 0 001.283-1.472 2.974 2.974 0 00-1.03-3.54 3.01 3.01 0 00-3.698.15 2.975 2.975 0 00-.738 3.61c.3.598.792 1.078 1.398 1.364a.617.617 0 00.821-.291.612.612 0 00-.293-.818z"/>
    <path fill-rule="evenodd" clip-rule="evenodd" d="M9.257.767c0-.424.344-.767.77-.767h24.959c.425 0 .77.343.77.767v48.466a.769.769 0 01-.77.767h-24.96a.769.769 0 01-.77-.767V27.301H7.563a.615.615 0 01-.616-.614c0-.339.275-.613.616-.613H21.12V27.3H10.49v21.472h24.034V1.227H10.49v17.638h10.63c.574 0 1.568.203 2.436.812.9.632 1.647 1.694 1.647 3.33 0 1.697-.71 2.8-1.608 3.46a4.397 4.397 0 01-2.475.834v-1.227a3.17 3.17 0 001.744-.594c.584-.429 1.107-1.166 1.107-2.474 0-1.202-.524-1.904-1.126-2.326-.634-.446-1.373-.588-1.724-.588H3.697c-.493.106-1.072.335-1.529.783-.458.449-.846 1.168-.846 2.361 0 1.072.437 1.75.94 2.18.528.45 1.138.633 1.429.66a.614.614 0 11-.115 1.222c-.532-.05-1.385-.327-2.116-.95-.754-.644-1.37-1.653-1.37-3.112 0-1.49.498-2.535 1.214-3.236.7-.686 1.557-.994 2.208-1.123l.06-.012h5.685V.767zm12.325 38.65c.34 0 .616.275.616.614v2.914a.407.407 0 00.069.216c.019.027.04.045.065.058a.377.377 0 00.174.032.376.376 0 00.174-.032.182.182 0 00.066-.058.408.408 0 00.069-.217h.616-.617v-2.913c0-.34.276-.614.617-.614.34 0 .616.275.616.614v2.914h-.377.377c0 .251-.07.615-.301.933-.253.35-.67.6-1.24.6s-.986-.25-1.24-.6a1.635 1.635 0 01-.3-.933V40.03c0-.34.275-.614.616-.614z"/>
</symbol><symbol id="door6">
    <path d="M10.921 1.814a.83.83 0 00-.837-.83l-8.368.045a.841.841 0 00-.837.84v48.417a.83.83 0 00.837.83l8.368-.045a.841.841 0 00.837-.84 4.207 4.207 0 014.184-4.196 4.152 4.152 0 014.184 4.151.83.83 0 00.837.83l8.369-.045a.841.841 0 00.836-.84V1.715a.83.83 0 00-.836-.83L20.126.93a.841.841 0 00-.837.84 4.207 4.207 0 01-4.184 4.196 4.152 4.152 0 01-4.184-4.151zm5.016 5.761a5.892 5.892 0 004.967-4.98l6.754-.037v46.748l-6.754.037c-.46-3.192-3.428-5.394-6.631-4.918a5.892 5.892 0 00-4.966 4.98l-6.754.037V2.694l6.754-.037c.46 3.192 3.428 5.394 6.63 4.918z"/>
</symbol><symbol id="door7">
    <path clip-rule="evenodd" d="M4.11 15.918a3 3 0 012.984-2.696h31.812a3 3 0 012.985 2.696l3.125 30.667a3 3 0 01-2.985 3.304H3.97a3 3 0 01-2.985-3.304L4.11 15.918z" stroke-width="1.4" stroke-linecap="round" stroke-linejoin="round"/>
    <path d="M31.556 20.556v-11C31.556 4.836 27.726 1 23 1c-4.725 0-8.555 3.84-8.555 8.556v11" stroke-width="1.4" stroke-linecap="round" stroke-linejoin="round"/>
</symbol><symbol id="icon-arrow-left">
    <path d="M19.103 4.827H2.98L7.1 1.52a.833.833 0 000-1.094.65.65 0 00-.986 0L.804 5.053a.833.833 0 000 1.093l5.31 4.628a.661.661 0 00.493.226.661.661 0 00.493-.226.833.833 0 000-1.094L2.98 6.373h16.123c.385 0 .697-.346.697-.773 0-.427-.312-.773-.697-.773z"/>
</symbol><symbol id="icon-arrow-long">
    <path d="M67.854 4.354a.5.5 0 000-.708L64.672.464a.5.5 0 10-.707.708L66.793 4l-2.829 2.828a.5.5 0 10.708.708l3.182-3.182zM0 4.5h67.5v-1H0v1z"/>
</symbol><symbol id="icon-arrow-right">
    <path d="M1.297 4.827H17.42L13.3 1.52a.833.833 0 010-1.094.65.65 0 01.986 0l5.31 4.627a.833.833 0 010 1.093l-5.31 4.628a.661.661 0 01-.493.226.661.661 0 01-.493-.226.833.833 0 010-1.094l4.12-3.307H1.297C.912 6.373.6 6.027.6 5.6c0-.427.312-.773.697-.773z"/>
</symbol><symbol id="icon-arrow-show-more">
    <path d="M24.984.984C24.434.996 23.992 1.45 24 2v43.254l-8.309-7.973a1.003 1.003 0 00-.722-.293 1.01 1.01 0 00-.914.645.993.993 0 00.254 1.086L25 48.984 35.691 38.72a.993.993 0 00.286-.961 1 1 0 00-1.668-.477L26 45.254V2A1.003 1.003 0 0024.984.984z"/>
</symbol><symbol id="icon-geo">
    <path d="M25 1C16.16 1 9 8.16 9 17c0 7.309 3.86 15.164 7.656 21.25 3.797 6.086 7.594 10.406 7.594 10.406.191.215.465.34.75.34s.559-.125.75-.34c0 0 3.8-4.41 7.594-10.531C37.137 32.004 41 24.168 41 17c0-8.84-7.16-16-16-16zm0 2c7.762 0 14 6.238 14 14 0 6.434-3.637 14.082-7.344 20.063-3.105 5.011-5.734 8.238-6.656 9.343-.93-1.097-3.559-4.254-6.656-9.218C14.64 31.25 11 23.59 11 17c0-7.762 6.238-14 14-14zm0 8c-3.855 0-7 3.145-7 7s3.145 7 7 7 7-3.145 7-7-3.145-7-7-7zm0 2c2.773 0 5 2.227 5 5s-2.227 5-5 5-5-2.227-5-5 2.227-5 5-5z"/>
</symbol><symbol id="icon-phone" viewBox="0 0 513.64 513.64">
    <path d="M499.66 376.96l-71.68-71.68c-25.6-25.6-69.12-15.359-79.36 17.92-7.68 23.041-33.28 35.841-56.32 30.72-51.2-12.8-120.32-79.36-133.12-133.12-7.68-23.041 7.68-48.641 30.72-56.32 33.28-10.24 43.52-53.76 17.92-79.36l-71.68-71.68c-20.48-17.92-51.2-17.92-69.12 0L18.38 62.08c-48.64 51.2 5.12 186.88 125.44 307.2s256 176.641 307.2 125.44l48.64-48.64c17.921-20.48 17.921-51.2 0-69.12z"/>
</symbol><symbol id="icon-route">
    <path d="M36.718 8.717a3.623 3.623 0 00-3.62-3.619 3.623 3.623 0 00-3.619 3.62 3.623 3.623 0 003.62 3.618 3.623 3.623 0 003.619-3.619zm-3.62 1.774a1.776 1.776 0 01-1.773-1.774c0-.978.795-1.774 1.773-1.774.979 0 1.774.796 1.774 1.774s-.795 1.774-1.774 1.774zm-19.581 8.812a3.948 3.948 0 00-3.944-3.944 3.948 3.948 0 00-3.945 3.944 3.95 3.95 0 003.945 3.944 3.949 3.949 0 003.944-3.944zm-3.944 2.099a2.101 2.101 0 01-2.1-2.1c0-1.157.942-2.098 2.1-2.098 1.157 0 2.099.941 2.099 2.099a2.101 2.101 0 01-2.1 2.099z"/>
    <path d="M44.94 28.135a8.582 8.582 0 00-10.859 0c-2.889 2.37-4.183 6.74-3.076 10.393.962 3.174 3.418 5.797 5.982 8.049H25.714L11.218 34.7l8.054-4.38c1.04-.565.16-2.188-.882-1.62l-7.895 4.293v-2.325c2.435-2.008 5.398-4.5 6.546-7.875 1.142-3.358.016-7.522-2.621-9.685a7.662 7.662 0 00-9.695 0C2.15 15.22.997 19.116 1.983 22.37c1.026 3.386 3.957 6.056 6.667 8.297v3.878c0 .273.127.54.338.713L24.8 48.213a.924.924 0 00.584.21h14.127c.327 0 .552-.182.792-.38 2.787-2.298 6.256-5.156 7.577-9.039 1.282-3.77.018-8.442-2.94-10.87zm-41.191-6.3c-.766-2.53.156-5.668 2.147-7.3a5.787 5.787 0 013.677-1.311c1.305 0 2.61.436 3.676 1.31 2.04 1.673 2.938 5.04 2.045 7.664-.947 2.785-3.426 4.94-5.72 6.838-2.43-2.024-4.976-4.4-5.825-7.201zM46.133 38.41c-1.1 3.23-3.978 5.71-6.622 7.894-2.798-2.326-5.755-5.063-6.74-8.311-.885-2.921.181-6.546 2.48-8.432a6.726 6.726 0 014.26-1.509c1.56 0 3.072.536 4.258 1.51 2.356 1.931 3.394 5.819 2.364 8.848z"/>
    <path d="M39.51 30.722a4.361 4.361 0 00-4.356 4.356 4.362 4.362 0 004.356 4.357 4.362 4.362 0 004.358-4.357 4.361 4.361 0 00-4.358-4.356zm0 6.868A2.514 2.514 0 0137 35.078a2.515 2.515 0 012.511-2.511 2.514 2.514 0 012.512 2.511 2.514 2.514 0 01-2.511 2.512zM25.373 26.875c.15 0 .3-.036.44-.112l7.726-4.201a.923.923 0 00.482-.811v-2.845c2.176-1.795 4.809-4.022 5.837-7.043 1.032-3.034.013-6.797-2.37-8.751a6.938 6.938 0 00-8.778 0c-2.328 1.91-3.37 5.43-2.479 8.37.92 3.034 3.526 5.42 5.945 7.423v2.297l-7.245 3.94c-.819.446-.492 1.733.442 1.733zm2.624-15.927c-.673-2.221.137-4.977 1.883-6.41a5.065 5.065 0 013.22-1.147c1.143 0 2.285.382 3.218 1.147 1.79 1.469 2.578 4.425 1.794 6.731-.828 2.433-2.992 4.333-5.011 6.004-2.137-1.784-4.36-3.874-5.103-6.325zm-5.894 17.6a.933.933 0 00.923-.923.933.933 0 00-.923-.923.932.932 0 00-.921.883.932.932 0 00.92.963z"/>
</symbol><symbol id="icon-surface">
    <path d="M22.72 32.874h.2v-.067a9.595 9.595 0 009.381-9.513v-.002a9.582 9.582 0 00-9.582-9.582 9.582 9.582 0 00-9.581 9.582 9.582 9.582 0 009.581 9.582zm-11.785-9.582c0-6.508 5.276-11.784 11.784-11.784 6.505.008 11.777 5.28 11.785 11.785 0 6.509-5.276 11.784-11.785 11.784-6.508 0-11.784-5.276-11.784-11.785z" stroke-width=".4"/>
    <path d="M45.644 38.66v.2h17.012a1.1 1.1 0 011.101 1.1v5.583a1.101 1.101 0 01-2.202 0v-4.481h-15.91v4.481c0 .608-.494 1.101-1.102 1.101h-21.12C10.596 46.644.2 36.247.2 23.422.2 10.597 10.597.2 23.422.2c12.814 0 22.222 10.385 22.222 23.222V38.66zm-2.402 5.782h.2v-21.02c0-11.596-8.398-21.02-20.02-21.02-11.61 0-21.02 9.411-21.02 21.02 0 11.61 9.41 21.02 21.02 21.02h19.82z" stroke-width=".4"/>
</symbol><symbol id="icon-telemarketer">
    <path d="M37.722 38.066h0c2.848 1.269 4.77 2.127 5.986 3.054.604.46 1.023.929 1.293 1.464.27.535.4 1.149.4 1.91 0 2.252-2.02 4.306-4.215 4.306H6.815c-2.197 0-4.215-2.054-4.215-4.306 0-.761.129-1.375.399-1.91.27-.535.69-1.004 1.293-1.464 1.216-.927 3.138-1.785 5.986-3.054h0l.14-.062a270.604 270.604 0 004.182-1.9 15.8 15.8 0 001.694 1.441 247.673 247.673 0 01-5.255 2.405c-2.805 1.25-4.409 2.006-5.308 2.625-.453.312-.745.6-.92.915-.178.319-.225.643-.225 1.003 0 .528.252 1.093.645 1.522.395.431.953.749 1.584.749h34.37c.63 0 1.188-.318 1.583-.749.393-.43.646-.994.646-1.522 0-.36-.047-.684-.224-1.003-.176-.314-.468-.603-.921-.914-.9-.62-2.503-1.376-5.309-2.626a250.103 250.103 0 01-5.254-2.405 15.66 15.66 0 001.694-1.44 253.087 253.087 0 004.322 1.961z" stroke-width=".4"/>
    <path d="M38.2 14.7v.2h2.6c1.211 0 2.2 1.003 2.2 2.25v7.35c0 1.247-.989 2.25-2.2 2.25h-2.4c-.71 0-1.32-.37-1.727-.925l-.261-.356-.095.431C34.79 32.809 29.827 37.836 24 37.836c-5.69 0-10.565-4.787-12.213-11.445l-.011-.046-.03-.035c-.056-.066-.098-.13-.148-.203a6.555 6.555 0 00-.065-.096l-.145-.21-.17.191c-.406.461-.974.758-1.618.758H7.2c-1.211 0-2.2-1.003-2.2-2.25v-7.35c0-1.247.989-2.25 2.2-2.25h2.6v-.2C9.8 6.688 16.162.2 24 .2c7.838 0 14.2 6.488 14.2 14.5zm-28.6 10h.2v-7.75H7v7.75h2.6zm5.352 3.773l-.476-.211.213.476C16.562 32.932 20.013 35.8 24 35.8c3.005 0 5.715-1.627 7.667-4.224 1.951-2.596 3.155-6.173 3.155-10.108 0-3.936-1.204-7.512-3.155-10.109C29.715 8.762 27.005 7.135 24 7.135s-5.715 1.627-7.667 4.224c-1.951 2.597-3.154 6.173-3.154 10.109 0 1.317.145 2.587.396 3.798l.015.07.055.044c.784.638 2.314 1.385 4.164 1.971 1.856.589 4.056 1.024 6.191 1.024.549 0 1 .454 1 1.025 0 .57-.451 1.025-1 1.025-2.53 0-6.23-.7-9.048-1.952zm20.83-13.417l.39-.059c0-.035.005-.071.012-.122h0c.007-.048.016-.11.016-.175 0-6.861-5.469-12.45-12.2-12.45-6.731 0-12.2 5.589-12.2 12.45 0 .066.009.127.015.175h0a.97.97 0 01.014.122l.39.059C14.184 9.183 18.744 5.1 24 5.1s9.815 4.082 11.782 9.956zM40.8 24.7h.2v-7.75h-2.8v7.75h2.6z" stroke-width=".4"/>
</symbol><symbol id="temp"/></svg>