<svg width="100" height="90" fill="none" xmlns="http://www.w3.org/2000/svg"><path fill-rule="evenodd" clip-rule="evenodd" d="M12 87.492v-15a1.5 1.5 0 013 0v14.5h73.922a1.5 1.5 0 010 3H14.5a2.5 2.5 0 01-2.5-2.5z" fill="#fff"/><path d="M15 16.122V3.992h81.25v84.5a1.5 1.5 0 003 0v-85a2.5 2.5 0 00-2.5-2.5H14.5a2.5 2.5 0 00-2.5 2.5v12.63a1.5 1.5 0 003 0z" fill="#fff"/><path d="M90 11a2 2 0 100-4 2 2 0 000 4zm-8 0a2 2 0 100-4 2 2 0 000 4zm-8 0a2 2 0 100-4 2 2 0 000 4z" fill="#fff"/><path d="M13.688 16.206H96M52 36.617h26.851M52 45.153h26.851M52 54.367h15.75" stroke="#fff" stroke-width="3" stroke-linecap="round"/><path d="M18.672 26.241c10.299 0 18.679 7.855 18.679 17.51 0 3.962-1.436 7.77-4.038 10.855l2.903 6.118c.016.033.023.067.037.102.021.055.044.11.06.166.013.047.02.094.028.143.01.052.021.105.025.158.004.052.002.103.001.153s0 .102-.005.154c-.006.056-.019.111-.031.167-.008.037-.01.074-.021.11-.002.007-.006.011-.008.018a1.62 1.62 0 01-.188.404c-.016.025-.032.05-.049.073a1.53 1.53 0 01-.292.311c-.016.013-.033.021-.048.032-.059.042-.117.087-.182.12-.043.022-.089.033-.134.05-.039.016-.076.032-.116.045a1.44 1.44 0 01-.417.07l-.007-.001a1.398 1.398 0 01-.411-.064l-.013-.002-9.069-2.852a19.674 19.674 0 01-6.701 1.18C8.378 61.26 0 53.406 0 43.749c-.003-9.653 8.375-17.508 18.672-17.508zm0 31.873a16.78 16.78 0 006.16-1.155c.013-.005.026-.006.039-.01.053-.02.107-.032.163-.046.042-.01.083-.022.125-.027.051-.007.104-.007.156-.01.047 0 .093-.004.14 0 .045.003.09.012.136.02.054.009.108.018.16.032.013.004.026.004.039.008l6.198 1.949-1.819-3.834c-.013-.028-.02-.059-.031-.087l-.024-.066a1.643 1.643 0 01-.097-.532l.001-.05c.004-.188.038-.37.102-.541.006-.017.013-.03.02-.048.072-.175.173-.335.303-.475.005-.006.007-.015.012-.02 2.513-2.621 3.896-5.986 3.896-9.471 0-7.918-7.033-14.362-15.679-14.362-8.644 0-15.675 6.442-15.675 14.362s7.031 14.363 15.675 14.363z" fill="#fff"/><path d="M13.232 41.762c-1.085 0-1.964-.923-1.964-2.061 0-1.139.88-2.062 1.964-2.062 1.085 0 1.964.923 1.964 2.062 0 1.138-.88 2.061-1.964 2.061zm10.885 0c-1.085 0-1.964-.923-1.964-2.061 0-1.139.88-2.062 1.964-2.062 1.085 0 1.964.923 1.964 2.062 0 1.138-.88 2.061-1.964 2.061zm-10.37 5.512c2.992 1.36 6.859 1.36 9.853 0 .76-.345 1.643.022 1.972.82.329.799-.021 1.726-.781 2.071-1.859.844-3.988 1.266-6.118 1.266-2.13 0-4.26-.422-6.117-1.266-.761-.345-1.11-1.273-.781-2.07.329-.799 1.21-1.168 1.972-.82z" fill="#fff"/></svg>