<svg width="93" height="90" fill="none" xmlns="http://www.w3.org/2000/svg"><path fill-rule="evenodd" clip-rule="evenodd" d="M16 3.992v30.193a1.5 1.5 0 01-3 0V3.492a2.5 2.5 0 012.5-2.5h58a2.5 2.5 0 012.5 2.5v12.5h14.5a2.5 2.5 0 012.5 2.5v70a1.5 1.5 0 01-3 0v-69.5H76v69.5a1.5 1.5 0 01-3 0v-84.5H16zm-3 83.5v-23a1.5 1.5 0 013 0v22.5h44a1.5 1.5 0 010 3H15.5a2.5 2.5 0 01-2.5-2.5z" fill="#fff"/><path d="M83 50.992a1.5 1.5 0 013 0v10a1.5 1.5 0 01-3 0v-10zm-72.077 4.702c0-.54-.253-.935-.627-1.133-.275-.143-.528-.165-1.177-.165H4.961l3.806-4.576c1.397-1.672 2.024-2.52 2.024-4.29 0-2.794-1.925-4.334-4.807-4.334-1.485 0-2.486.385-3.355 1.1-.825.682-1.32 1.727-1.32 2.585 0 .385.099.726.341 1.023.242.297.572.429 1.023.429.363 0 .649-.11.814-.242.231-.198.407-.44.561-.814.418-1.056 1.001-1.485 1.991-1.485 1.221 0 1.881.77 1.881 1.804 0 .99-.407 1.639-1.1 2.486l-4.862 5.896c-.429.517-.759.957-.759 1.573 0 .429.154.78.396 1.023.385.407.913.418 1.507.418h6.017c.649 0 .902-.022 1.177-.165.374-.198.627-.594.627-1.133zm11.77-9.823c0-3.003-2.223-4.675-4.775-4.675-2.552 0-4.774 1.672-4.774 4.675v6.578c0 3.003 2.222 4.675 4.774 4.675s4.774-1.672 4.774-4.675V45.87zm-6.667-.022c0-1.298.77-2.068 1.892-2.068 1.122 0 1.892.77 1.892 2.068v6.622c0 1.298-.77 2.068-1.892 2.068-1.122 0-1.892-.77-1.892-2.068v-6.622zm18.612.022c0-3.003-2.222-4.675-4.774-4.675s-4.774 1.672-4.774 4.675v6.578c0 3.003 2.222 4.675 4.774 4.675s4.774-1.672 4.774-4.675V45.87zm-6.666-.022c0-1.298.77-2.068 1.892-2.068 1.122 0 1.892.77 1.892 2.068v6.622c0 1.298-.77 2.068-1.892 2.068-1.122 0-1.892-.77-1.892-2.068v-6.622zm16.983 6.138c.649 0 .902-.022 1.177-.165.374-.198.627-.594.627-1.133 0-.54-.253-.935-.627-1.133-.275-.143-.528-.165-1.177-.165h-1.848v-1.848c0-.65-.022-.902-.165-1.177-.198-.374-.594-.627-1.133-.627-.54 0-.935.253-1.133.627-.143.275-.165.528-.165 1.177v1.848h-1.848c-.65 0-.902.022-1.177.165-.374.198-.627.594-.627 1.133s.253.935.627 1.133c.275.143.528.165 1.177.165h1.848v1.848c0 .649.022.902.165 1.177.198.374.594.627 1.133.627s.935-.253 1.133-.627c.143-.275.165-.528.165-1.177v-1.848h1.848z" fill="#fff"/></svg>