<svg width="74" height="87" fill="none" xmlns="http://www.w3.org/2000/svg"><path fill-rule="evenodd" clip-rule="evenodd" d="M72.457 2.825L40.773 14.983a19.7 19.7 0 013.192 8.719 41.03 41.03 0 001.72-1.474c.737-.614 1.596-1.228 2.456-1.842 2.456-1.72 5.035-3.316 7.245-4.79 5.895-3.93 11.79-7.736 17.685-11.666.737-.369.368-1.351-.614-1.105z" fill="#FC0"/><path fill-rule="evenodd" clip-rule="evenodd" d="M39.544 13.263C27.017-.246 10.438 12.158 3.193 0-7 13.263 9.456 31.07 23.947 21.737c4.175-2.702 8.965-6.263 15.597-8.474z" fill="#E30016"/><path fill-rule="evenodd" clip-rule="evenodd" d="M40.772 14.982c-2.702.983-5.158 2.088-7.614 3.562.491.614.86 1.473.86 2.333 0 1.965-1.597 3.684-3.685 3.684-1.473 0-2.701-.86-3.316-1.965-3.93 3.07-7.122 6.51-8.35 10.316C13.877 47.281 32.298 49 37.702 65.088c2.947 8.842-1.228 15.842-6.018 19.894-.368.369-.982.86-.86 1.106.123.245.246.245 1.72.368C49.123 87.807 63 71.474 57.964 54.65c-2.7-8.842-7.49-12.035-11.42-14.614-9.456-6.386-7.491-11.667-2.456-16.333-.492-3.193-1.597-6.263-3.316-8.72zm-10.439 4.053c.983 0 1.842.86 1.842 1.842 0 .983-.86 1.842-1.842 1.842-.982 0-1.842-.86-1.842-1.842 0-.982.86-1.842 1.842-1.842z" fill="#1B1918"/></svg>