<svg width="98" height="66" fill="none" xmlns="http://www.w3.org/2000/svg"><path d="M96.048 11.877h-7.05c-.946-4.58-5.01-8.033-9.865-8.033H69.22a1.95 1.95 0 00-1.665-.937h-6.902A3.978 3.978 0 0056.914.269H7.756A7.06 7.06 0 00.703 7.322a7.064 7.064 0 004.612 6.616L.07 33.01a1.953 1.953 0 00-.068.595l.981 24.648a7.824 7.824 0 007.829 7.478c4.858 0 8.811-3.953 8.811-8.811v-7.722l2.462-1.273a1.952 1.952 0 001.055-1.734v-6.138h.92v2.269a1.952 1.952 0 003.904 0v-2.27H44.78c8.552 0 15.566-6.699 16.077-15.125h6.7c.705 0 1.322-.375 1.665-.937h9.912c4.918 0 9.02-3.542 9.898-8.209h7.017a1.952 1.952 0 100-3.904zm-51.27 24.271h-25.59a1.952 1.952 0 00-1.952 1.952v6.903l-2.462 1.273a1.952 1.952 0 00-1.055 1.734v8.91a4.913 4.913 0 01-4.907 4.907 3.923 3.923 0 01-3.928-3.741l-.969-24.333 5.33-19.379H31.5a1.952 1.952 0 000-3.904H7.756a3.152 3.152 0 01-3.148-3.148 3.152 3.152 0 013.148-3.149h49.159a.07.07 0 01.07.07v19.7c0 6.73-5.476 12.205-12.206 12.205zm20.825-15.125H60.89V6.81h4.714v14.212zm13.53-.937h-9.625V7.748h9.625a6.175 6.175 0 016.169 6.169 6.176 6.176 0 01-6.169 6.169z" fill="#fff"/><path d="M39.063 10.47h-1.056a1.952 1.952 0 000 3.904h1.056a1.952 1.952 0 000-3.904zm5.627 15.735h-6.33a1.952 1.952 0 000 3.904h6.33a1.952 1.952 0 000-3.904zm0-6.452h-6.33a1.952 1.952 0 000 3.904h6.33a1.952 1.952 0 000-3.904z" fill="#fff"/></svg>