<svg width="36" height="36" fill="none" xmlns="http://www.w3.org/2000/svg"><circle cx="18" cy="18" r="18" fill="#fff"/><path d="M21.826 10.627l-2.06-.003c-2.316 0-3.107 1.746-3.107 3.207v1.876h-2.073a.324.324 0 00-.324.324v1.909c0 .178.146.323.324.323h2.072v7.371c0 .18.145.324.325.324h1.998c.18 0 .325-.145.325-.324v-7.37h2.422a.324.324 0 00.324-.325l.001-1.908a.325.325 0 00-.324-.324h-2.423v-1.602c0-.414.175-1.108 1.132-1.108h1.388a.324.324 0 00.324-.324V10.95a.324.324 0 00-.324-.324z" fill="#F24A41"/></svg>