<svg width="96" height="75" fill="none" xmlns="http://www.w3.org/2000/svg"><path fill-rule="evenodd" clip-rule="evenodd" d="M88.991 44.88L87.68 31.3c-.36-1.873-.98-3.304-1.895-4.372-1.181-1.378-2.837-2.107-4.79-2.107H67.717v-9.175a2.29 2.29 0 00-2.291-2.29H42.497a2.291 2.291 0 000 4.581h20.638v26.848H32.7a2.29 2.29 0 00-2.29 2.291 2.28 2.28 0 002.29 2.28h54.807c2.166.247 3.911 2.017 3.911 4.249v11.982h-4.976c-.945-2.667-3.491-4.582-6.478-4.582-2.987 0-5.533 1.915-6.478 4.582H50.489c-.946-2.667-3.492-4.582-6.479-4.582-2.984 0-5.53 1.913-6.477 4.577-.249.702-.598 2.6-.003 4.582.945 2.669 3.492 4.586 6.48 4.586 2.987 0 5.533-1.915 6.479-4.582h22.997c.945 2.667 3.491 4.582 6.478 4.582 2.987 0 5.533-1.915 6.478-4.582h7.267A2.29 2.29 0 0096 67.878V53.605c0-4.265-3.005-7.842-7.009-8.725zm-7.996-15.477H67.717v15.382h16.586l-1.12-12.606-.002-.006v-.005c-.53-2.765-1.487-2.765-2.186-2.765zM41.72 67.878a2.294 2.294 0 002.29 2.29 2.294 2.294 0 002.291-2.29 2.294 2.294 0 00-2.29-2.291 2.294 2.294 0 00-2.291 2.29zm35.953 0a2.293 2.293 0 002.291 2.29 2.294 2.294 0 002.29-2.29 2.294 2.294 0 00-2.29-2.291 2.294 2.294 0 00-2.29 2.29z" fill="#000"/><path fill-rule="evenodd" clip-rule="evenodd" d="M21.14 42.164c1.217 0 2.203.986 2.203 2.202v14.751c0 2.992.972 4.51 1.884 5.301.987.858 2.183 1.108 2.89 1.086l.035-.002h10.603v4.404H28.217c-1.638.042-3.945-.484-5.878-2.163-2.024-1.759-3.4-4.571-3.4-8.626V44.366c0-1.216.986-2.202 2.202-2.202z" fill="#000"/><path fill-rule="evenodd" clip-rule="evenodd" d="M42.914.56a2.642 2.642 0 01.454 3.71L20.891 33.02a4.404 4.404 0 01-6.494.487L1.712 21.516a2.642 2.642 0 113.63-3.84l11.982 11.327L39.205 1.015a2.642 2.642 0 013.71-.454z" fill="#F24A41"/></svg>