<svg width="196" height="87" fill="none" xmlns="http://www.w3.org/2000/svg"><g clip-path="url(#clip0)" fill-rule="evenodd" clip-rule="evenodd"><path d="M72.456 2.825L40.772 14.983a19.7 19.7 0 013.193 8.719 41.165 41.165 0 001.72-1.474c.736-.614 1.596-1.228 2.455-1.842 2.456-1.72 5.035-3.316 7.246-4.79 5.895-3.93 11.79-7.736 17.684-11.666.737-.369.369-1.351-.614-1.105z" fill="#FC0"/><path d="M39.543 13.263C27.017-.246 10.438 12.158 3.193 0-7.002 13.263 9.455 31.07 23.946 21.737c4.175-2.702 8.965-6.263 15.596-8.474z" fill="#E30016"/><path d="M40.772 14.982c-2.702.983-5.158 2.088-7.614 3.562.491.614.86 1.473.86 2.333 0 1.965-1.597 3.684-3.685 3.684-1.473 0-2.701-.86-3.316-1.965-3.93 3.07-7.122 6.51-8.35 10.316C13.877 47.281 32.298 49 37.702 65.088c2.947 8.842-1.228 15.842-6.018 19.894-.368.369-.982.86-.86 1.106.123.245.246.245 1.72.368C49.123 87.807 63 71.474 57.964 54.65c-2.7-8.842-7.49-12.035-11.42-14.614-9.456-6.386-7.491-11.667-2.456-16.333-.492-3.193-1.597-6.263-3.316-8.72zm-10.439 4.053c.983 0 1.842.86 1.842 1.842 0 .983-.86 1.842-1.842 1.842-.982 0-1.842-.86-1.842-1.842 0-.982.86-1.842 1.842-1.842z" fill="#1B1918"/><path d="M71.842 67.053l.737-5.035h.123l2.088 4.175 1.965-4.175h.122l.737 5.035h-.491l-.491-3.562-1.842 3.562h-.123l-1.842-3.685-.492 3.685h-.49zm9.088-5.035h2.825v.49H81.42v1.597h2.334v.492H81.42v1.964h2.334v.492H80.93v-5.035zm9.333 2.701v2.334h-.614v-2.334l-.123-.122-2.087 2.456h-.614l2.456-2.825-2.21-2.21h.736l1.965 2.087v-2.088h.491v2.088l1.965-2.088h.737l-2.21 2.211 2.456 2.825h-.614l-2.088-2.456-.246.122zm6.018-2.701h.491v1.842l1.965-1.843h.737l-2.456 2.211 2.579 2.825h-.614l-2.21-2.334v2.334h-.492v-5.035zm8.842-.123c.737 0 1.351.245 1.965.737.491.49.737 1.105.737 1.842 0 .736-.246 1.35-.737 1.842-.491.491-1.105.737-1.842.737-.737 0-1.351-.246-1.842-.737-.492-.491-.737-1.106-.737-1.842 0-.492.123-.983.368-1.351.246-.369.491-.737.983-.983.245-.123.737-.245 1.105-.245zm.123.491c-.369 0-.737.123-1.105.246-.369.245-.615.49-.737.736-.246.369-.246.737-.246 1.106 0 .614.246 1.105.614 1.473.369.369.86.614 1.474.614.368 0 .737-.122 1.105-.245.368-.246.614-.491.737-.737.246-.368.246-.737.246-1.105 0-.369-.123-.737-.246-1.106-.246-.368-.491-.614-.737-.736-.368-.123-.737-.246-1.105-.246zm5.895 4.667l.736-5.035H112l2.088 4.175 1.965-4.175h.123l.736 5.035h-.491l-.491-3.562-1.719 3.562h-.123l-1.842-3.685-.491 3.685h-.614zm9.087-5.035h.491v2.087h2.579v-2.088h.492v5.036h-.492v-2.456h-2.579v2.456h-.491v-5.035zm9.211 0l2.333 5.035h-.491l-.737-1.72h-2.21l-.737 1.72h-.614l2.333-5.035h.123zm-.123 1.105l-.86 1.842h1.72l-.86-1.842zm4.544-.614v-.492h2.702v.492h-1.106v4.544h-.368v-4.544h-1.228zm6.017-.492h.492v2.088h2.579v-2.088h.491v5.036h-.491v-2.456h-2.579v2.456h-.492v-5.035zm7.246 0h.491v2.211h.369c.614 0 1.105 0 1.473.123.246.123.492.246.737.491.123.246.246.491.246.86 0 .368-.123.614-.246.86-.123.245-.368.368-.614.49-.245.123-.737.123-1.351.123h-.982v-5.157h-.123zm.491 4.544h.491c.614 0 .983 0 1.106-.122.123 0 .245-.123.368-.246s.123-.368.123-.614a.937.937 0 00-.246-.614c-.123-.123-.245-.246-.491-.246h-1.596v1.842h.245zm3.316-4.544h.491v5.036h-.491v-5.035zm4.053 0h2.947v.492h-2.333v1.596h2.333v.492h-2.333v1.964h2.333v.492h-2.825v-5.035h-.122zm10.07 5.773h-.491v-1.23h.368l1.965-4.544h.123l2.087 4.544h.369v1.228h-.491v-.736h-4.053v.737h.123zm.491-1.229h3.07L167.018 63l-1.474 3.561zm7.246-4.544h.982c.369 0 .737 0 .983.123a.961.961 0 01.491.492c.123.245.123.368.123.614 0 .245 0 .49-.123.614-.123.123-.246.368-.491.49.245.124.491.247.614.37.122.122.245.245.368.49.123.123.123.369.123.615 0 .368-.123.736-.491.982-.246.246-.737.368-1.228.368h-1.351v-5.157zm.491.492v1.596h.245c.369 0 .615 0 .737-.123.123-.122.246-.122.369-.245s.123-.246.123-.491c0-.246-.123-.369-.246-.492-.123-.122-.368-.245-.737-.245h-.491zm0 2.088v1.964h.614c.368 0 .614 0 .86-.122l.368-.369c.123-.123.123-.368.123-.491 0-.246-.123-.368-.246-.614-.123-.123-.368-.246-.614-.368h-1.105zm5.895-2.58H182v.492h-2.333v1.596H182v.492h-2.333v1.964H182v.492h-2.824v-5.035zm6.386 0h.982c.614 0 .982 0 1.105.123.246.123.492.246.737.492.123.245.246.49.246.86 0 .368-.123.613-.246.859s-.368.368-.737.491c-.245 0-.614.123-1.228.123h-.368v2.333h-.491v-5.28zm.491.492v1.72h.859c.369 0 .614 0 .737-.124.123-.123.246-.123.369-.245.123-.123.123-.246.123-.492 0-.122 0-.368-.123-.49-.123-.124-.246-.246-.369-.246s-.368-.123-.737-.123h-.859zM196 67.053h-.491v-3.807l-3.316 3.807h-.123v-5.035h.492v3.93l3.315-3.93H196v5.035zm-24.684-31.439c2.21 0 4.175.737 5.772 2.333.86.737 1.351 1.72 1.842 2.58.368.982.614 1.964.614 3.07 0 1.105-.246 2.21-.614 3.192-.368.983-.982 1.843-1.842 2.702-.737.737-1.719 1.351-2.702 1.842-.982.369-1.965.614-3.07.614-.614 0-1.228-.123-1.842-.245-.614-.123-1.105-.369-1.719-.614-.492-.246-.983-.614-1.474-.983-.369-.245-.737-.614-1.105-.982v7.614h-2.334v-12.28c0-2.58.86-4.79 2.334-6.387 1.596-1.596 3.561-2.456 6.14-2.456zm-.123 2.21c-1.719 0-3.07.615-4.298 1.72-.614.614-.983 1.228-1.351 1.965-.246.737-.491 1.473-.491 2.333 0 .614.123 1.105.245 1.597.123.49.369.982.614 1.473.246.492.614.86.983 1.228.368.369.737.614 1.228.983.491.245.982.491 1.474.614.491.123.982.245 1.596.245.491 0 .983-.122 1.474-.245s.982-.369 1.474-.614c.491-.246.859-.614 1.228-.983.368-.368.736-.736.982-1.228.246-.491.491-.982.614-1.473.123-.492.246-.983.246-1.474s-.123-.983-.246-1.597c-.123-.49-.368-.982-.614-1.473-.246-.492-.614-.86-.982-1.228-.369-.369-.737-.737-1.228-.983-.492-.245-.983-.491-1.474-.614a5.285 5.285 0 00-1.474-.245zm-13.14 8.351l1.842.983-.123.123c-.246.49-.614.982-.86 1.473-.368.492-.614.86-1.105 1.106-.368.368-.737.614-1.228.86-.368.245-.86.49-1.351.613l-1.473.369c-.492.123-1.106.123-1.597.123a9.561 9.561 0 01-3.439-.614c-.982-.369-1.842-.983-2.578-1.843a9.813 9.813 0 01-1.597-2.579c-.368-.982-.491-1.965-.491-2.947 0-1.965.614-3.684 1.842-5.28.737-.983 1.719-1.72 2.702-2.211 1.105-.491 2.21-.737 3.561-.737s2.579.246 3.684.737c1.106.491 2.088 1.228 2.825 2.21.614.737.982 1.474 1.351 2.334.245.86.491 1.842.491 2.947v.123h-14c0 .86.123 1.474.491 2.21.246.737.737 1.351 1.228 1.843.491.49 1.106.982 1.842 1.228.614.245 1.351.368 2.211.368.737 0 1.474-.123 2.21-.368.369-.123.737-.246.983-.492.245-.122.614-.368.86-.614.245-.245.491-.49.859-.86.246-.368.614-.736.86-1.227l.123-.123-.123.245zM157.684 42c-.122-.368-.245-.86-.368-1.228-.246-.368-.368-.737-.614-1.105-.246-.246-.491-.614-.86-.86-.368-.246-.737-.491-1.105-.614a2.37 2.37 0 00-1.228-.368c-.368-.123-.86-.123-1.351-.123-.737 0-1.474.123-2.088.368-.614.246-1.228.614-1.719 1.105-.368.369-.737.737-.982 1.229-.246.49-.492.982-.737 1.596h11.052zm-21.859 9.456h-4.667V35.982h4.667c1.719 0 3.07.369 3.807 1.229.368.368.737.86.859 1.35.246.492.246.983.246 1.474 0 .86-.123 1.474-.491 2.088-.246.491-.737.86-1.228 1.105.859.368 1.473.86 1.965 1.474.491.737.736 1.596.736 2.579 0 1.473-.491 2.579-1.473 3.316-.983.49-2.456.86-4.421.86zm-2.334-13.386v4.421h2.579c.369 0 .614 0 .86-.123.123 0 .368-.122.491-.245s.369-.246.491-.369c.123-.122.246-.368.369-.614.123-.245.123-.49.123-.736s0-.615-.123-.86c-.123-.246-.246-.491-.369-.614-.122-.246-.368-.369-.491-.491-.123-.123-.368-.123-.491-.246-.123 0-.491-.123-.86-.123h-2.579zm0 6.509v5.035h3.316c.369 0 .614-.123.86-.123.245 0 .368-.123.614-.245.123-.123.368-.246.491-.492.123-.245.246-.368.369-.614.122-.245.122-.49.122-.86 0-.368-.122-.736-.245-1.105a3.756 3.756 0 00-.614-.86c-.246-.245-.492-.368-.86-.49-.368-.123-.737-.123-1.105-.123h-2.948v-.123zm-20.263 4.912l6.018-13.509h1.228l6.017 13.51h1.965v3.929h-2.333v-1.965h-12.526v1.965h-2.334v-4.053h1.965v.123zm6.632-9.947l-4.298 9.947h8.473l-4.175-9.947zm-11.176 5.035v6.877h-2.333v-2.333c-.368.368-.737.737-1.105.982-.491.369-.983.737-1.474.983a7.173 7.173 0 01-1.719.614c-.614.123-1.228.245-1.842.245-1.106 0-2.21-.245-3.193-.614-.983-.368-1.842-.982-2.702-1.842-.737-.737-1.35-1.72-1.842-2.579-.369-.982-.614-1.965-.614-3.193 0-2.21.86-4.298 2.456-5.772 1.474-1.473 3.561-2.333 5.772-2.333a8.48 8.48 0 014.421 1.228c1.351.86 2.333 1.965 2.947 3.439.369.614.492 1.35.737 2.087.369.614.491 1.474.491 2.21zm-8.228-6.755c-.49 0-1.105.123-1.596.246-.491.123-.983.369-1.474.614-.491.246-.86.614-1.228.983-.368.368-.737.736-.982 1.228-.246.49-.492.982-.614 1.473-.123.492-.246.983-.246 1.597 0 .491.123.982.246 1.474.122.49.368.982.614 1.473.245.492.614.86.982 1.228.368.369.737.737 1.228.983.491.245.983.491 1.474.614s.982.245 1.474.245c.491 0 1.105-.122 1.596-.245.491-.123.982-.369 1.474-.614.491-.246.859-.614 1.228-.983.368-.368.737-.736.982-1.228.246-.491.491-.982.614-1.473.123-.492.246-.983.246-1.597 0-.86-.123-1.596-.491-2.333-.246-.737-.737-1.351-1.351-1.965-.614-.614-1.228-.983-1.965-1.351-.491-.246-1.351-.368-2.211-.368zM91 51.58h-2.456l-6.877-15.23-7 15.228h-2.702c3.07-7 6.263-13.509 9.333-20.509h.614c3.07 7 6.14 13.509 9.211 20.509H91zm93.211-15.474v10.807l11.175-10.93h.369v15.474h-2.334v-10.93l-11.175 10.93h-.491V35.982h2.333v.123h.123z" fill="#3A3A3A"/></g><defs><clipPath id="clip0"><path fill="#fff" d="M0 0h196v86.579H0z"/></clipPath></defs></svg>