<svg width="195" height="87" fill="none" xmlns="http://www.w3.org/2000/svg"><g clip-path="url(#clip0)" fill-rule="evenodd" clip-rule="evenodd"><path d="M72.086 2.81L40.564 14.906a19.599 19.599 0 013.176 8.675 40.714 40.714 0 001.71-1.466c.734-.611 1.59-1.222 2.444-1.833 2.444-1.71 5.01-3.299 7.21-4.765 5.864-3.91 11.728-7.697 17.593-11.607.733-.367.367-1.344-.61-1.1z" fill="#FC0"/><path d="M39.341 13.195C26.88-.245 10.384 12.095 3.176 0-6.965 13.195 9.407 30.912 23.824 21.626c4.154-2.688 8.92-6.231 15.517-8.43z" fill="#E30016"/><path d="M40.564 14.906c-2.688.977-5.132 2.077-7.575 3.543.488.611.855 1.466.855 2.322 0 1.955-1.588 3.665-3.666 3.665-1.466 0-2.688-.855-3.298-1.955-3.91 3.055-7.087 6.476-8.309 10.263C13.806 47.04 32.133 48.75 37.51 64.756c2.933 8.797-1.221 15.76-5.986 19.793-.367.366-.978.855-.856 1.1.122.244.245.244 1.71.366C48.873 87.359 62.679 71.109 57.67 54.37c-2.688-8.797-7.453-11.973-11.363-14.54-9.408-6.353-7.453-11.606-2.443-16.25-.489-3.176-1.589-6.23-3.3-8.674zm-10.386 4.032c.978 0 1.833.855 1.833 1.833 0 .977-.855 1.832-1.833 1.832-.977 0-1.832-.855-1.832-1.832 0-.978.855-1.833 1.832-1.833z" fill="#1B1918"/><path d="M71.475 66.71l.733-5.009h.123l2.077 4.154 1.955-4.154h.122l.733 5.01h-.489l-.489-3.544-1.832 3.543h-.123l-1.832-3.665-.489 3.665h-.489zm9.042-5.009h2.81v.489h-2.322v1.588h2.322v.489h-2.322v1.955h2.322v.488h-2.81v-5.009zm9.285 2.688v2.321h-.61v-2.32l-.123-.122-2.077 2.443h-.61l2.443-2.81-2.2-2.199h.734l1.955 2.077v-2.077h.488v2.077l1.955-2.077h.733l-2.199 2.2 2.444 2.81h-.611l-2.077-2.444-.245.122zm5.987-2.688h.489v1.833l1.955-1.833h.733l-2.444 2.2 2.566 2.81h-.61l-2.2-2.322v2.321h-.489v-5.009zm8.797-.122c.733 0 1.344.244 1.955.733.489.489.733 1.1.733 1.833 0 .733-.244 1.344-.733 1.832-.489.49-1.099.733-1.833.733-.733 0-1.344-.244-1.832-.733-.489-.488-.733-1.1-.733-1.832 0-.49.122-.978.366-1.344.245-.367.489-.733.978-.978.244-.122.733-.244 1.099-.244zm.122.489c-.366 0-.733.122-1.099.244-.367.244-.611.489-.733.733-.245.367-.245.733-.245 1.1 0 .61.245 1.1.611 1.466.367.366.856.61 1.466.61.367 0 .734-.121 1.1-.244.367-.244.611-.488.733-.733.244-.366.244-.733.244-1.1 0-.366-.122-.732-.244-1.099-.244-.367-.489-.61-.733-.733-.366-.122-.733-.244-1.1-.244zm5.865 4.642l.733-5.009h.122l2.077 4.154 1.955-4.154h.122l.734 5.01h-.489l-.489-3.544-1.71 3.543h-.123l-1.832-3.665-.489 3.665h-.611zm9.041-5.009h.489v2.077h2.566v-2.077h.489v5.01h-.489v-2.444h-2.566v2.443h-.489v-5.009zm9.164 0l2.321 5.01h-.488L129.878 65h-2.2l-.733 1.71h-.611l2.322-5.009h.122zm-.122 1.1l-.855 1.832h1.71l-.855-1.832zm4.52-.611v-.49h2.688v.489h-1.099v4.52h-.367v-4.52h-1.222zm5.987-.489h.489v2.077h2.566v-2.077h.489v5.01h-.489v-2.444h-2.566v2.443h-.489v-5.009zm7.209 0h.489v2.2h.366c.611 0 1.1 0 1.466.121.245.123.489.245.733.49.123.243.245.488.245.855 0 .366-.122.61-.245.855-.122.244-.366.366-.61.488-.245.123-.734.123-1.344.123h-.978V61.7h-.122zm.489 4.52h.488c.611 0 .978 0 1.1-.121.122 0 .244-.123.367-.245.122-.122.122-.366.122-.61a.93.93 0 00-.245-.612c-.122-.122-.244-.244-.488-.244h-1.589v1.833h.245zm3.299-4.52h.488v5.01h-.488V61.7zm4.032 0h2.932v.489h-2.322v1.588h2.322v.489h-2.322v1.955h2.322v.488h-2.81v-5.009h-.122zm10.018 5.742h-.488v-1.221h.366l1.955-4.521h.122l2.077 4.52h.367v1.222h-.489v-.733h-4.032v.734h.122zm.489-1.221h3.055l-1.589-3.543-1.466 3.543zm7.209-4.521h.977c.367 0 .733 0 .978.122a.953.953 0 01.488.489c.122.244.122.367.122.61 0 .245 0 .49-.122.612s-.244.366-.488.488c.244.123.488.245.61.367.123.122.245.244.367.489.122.122.122.366.122.61 0 .367-.122.734-.489.978-.244.244-.733.367-1.221.367h-1.344V61.7zm.488.489v1.588h.245c.366 0 .611 0 .733-.122s.244-.122.366-.244c.123-.123.123-.245.123-.49 0-.243-.123-.366-.245-.488s-.366-.244-.733-.244h-.489zm0 2.077v1.955h.611c.367 0 .611 0 .856-.122l.366-.367c.122-.122.122-.367.122-.489 0-.244-.122-.366-.244-.61-.122-.123-.367-.245-.611-.367h-1.1zm5.865-2.566h2.81v.489h-2.321v1.588h2.321v.489h-2.321v1.955h2.321v.488h-2.81v-5.009zm6.353 0h.978c.611 0 .977 0 1.1.122.244.122.488.245.733.489.122.244.244.489.244.855 0 .367-.122.611-.244.855-.123.245-.367.367-.733.49-.245 0-.611.121-1.222.121h-.367v2.322h-.489V61.7zm.489.489v1.71h.855c.367 0 .611 0 .734-.122.122-.122.244-.122.366-.244s.122-.245.122-.489c0-.122 0-.367-.122-.489s-.244-.244-.366-.244c-.123 0-.367-.122-.734-.122h-.855zM195 66.71h-.489v-3.787l-3.299 3.787h-.122v-5.009h.489v3.91l3.299-3.91H195v5.01zm-24.558-31.278c2.199 0 4.154.733 5.742 2.322.855.733 1.344 1.71 1.833 2.566.366.977.611 1.954.611 3.054 0 1.1-.245 2.2-.611 3.177-.367.977-.978 1.832-1.833 2.688-.733.733-1.71 1.344-2.688 1.832-.977.367-1.955.611-3.054.611-.611 0-1.222-.122-1.833-.244s-1.1-.367-1.711-.611c-.488-.244-.977-.61-1.466-.977-.366-.245-.733-.611-1.099-.978v7.575h-2.322V44.23c0-2.566.855-4.765 2.322-6.353 1.588-1.588 3.543-2.444 6.109-2.444zm-.123 2.2c-1.71 0-3.054.61-4.276 1.71-.611.611-.977 1.222-1.344 1.955-.244.733-.489 1.466-.489 2.321 0 .611.123 1.1.245 1.589.122.489.366.977.611 1.466.244.489.611.855.977 1.222.367.366.733.61 1.222.977.489.245.977.489 1.466.611s.978.244 1.588.244c.489 0 .978-.122 1.467-.244.488-.122.977-.366 1.466-.61.489-.245.855-.612 1.222-.978.366-.367.733-.733.977-1.222s.489-.977.611-1.466.244-.978.244-1.466c0-.49-.122-.978-.244-1.589-.122-.489-.367-.977-.611-1.466s-.611-.855-.977-1.222c-.367-.366-.733-.733-1.222-.977-.489-.245-.978-.489-1.466-.611a5.257 5.257 0 00-1.467-.244zm-13.073 8.308l1.833.977-.122.122c-.245.49-.611.978-.856 1.467-.366.488-.61.855-1.099 1.1-.367.366-.733.61-1.222.855a4.518 4.518 0 01-1.344.61l-1.466.367c-.489.122-1.1.122-1.588.122a9.514 9.514 0 01-3.422-.61c-.977-.367-1.832-.978-2.565-1.834a9.793 9.793 0 01-1.589-2.565c-.366-.978-.488-1.955-.488-2.933 0-1.955.61-3.665 1.832-5.253.733-.978 1.711-1.71 2.688-2.2 1.1-.488 2.2-.733 3.544-.733 1.343 0 2.565.245 3.665.733 1.1.49 2.077 1.222 2.81 2.2.611.733.978 1.466 1.344 2.321.244.855.489 1.833.489 2.932v.123h-13.929c0 .855.122 1.466.489 2.199.244.733.733 1.344 1.222 1.833.488.488 1.099.977 1.832 1.221.611.245 1.344.367 2.2.367a6.9 6.9 0 002.199-.367c.366-.122.733-.244.977-.488.245-.123.611-.367.856-.611l.855-.856c.244-.366.611-.733.855-1.221l.122-.122-.122.244zm-.366-4.154c-.123-.367-.245-.856-.367-1.222-.244-.367-.366-.733-.611-1.1-.244-.244-.489-.61-.855-.855-.367-.244-.733-.489-1.1-.61a2.355 2.355 0 00-1.222-.367c-.366-.123-.855-.123-1.343-.123-.734 0-1.467.123-2.078.367-.61.244-1.221.61-1.71 1.1-.367.366-.733.733-.978 1.221-.244.49-.488.978-.733 1.589h10.997zm-21.749 9.408h-4.642V35.799h4.642c1.711 0 3.055.366 3.788 1.222.367.366.733.855.855 1.344.245.488.245.977.245 1.466 0 .855-.122 1.466-.489 2.077-.244.489-.733.855-1.222 1.1.855.366 1.466.855 1.955 1.466.489.733.733 1.588.733 2.565 0 1.467-.489 2.566-1.466 3.3-.977.488-2.444.855-4.399.855zm-2.321-13.318v4.398h2.566c.366 0 .611 0 .855-.122.122 0 .367-.122.489-.244s.366-.245.489-.367c.122-.122.244-.366.366-.61.122-.245.122-.49.122-.734s0-.61-.122-.855c-.122-.244-.244-.489-.366-.61-.123-.245-.367-.367-.489-.49-.122-.122-.367-.122-.489-.244-.122 0-.489-.122-.855-.122h-2.566zm0 6.476v5.009h3.299c.366 0 .611-.122.855-.122.245 0 .367-.122.611-.245.122-.122.367-.244.489-.488.122-.245.244-.367.366-.611.123-.245.123-.489.123-.856 0-.366-.123-.733-.245-1.1a3.689 3.689 0 00-.611-.854c-.244-.245-.488-.367-.855-.49-.367-.121-.733-.121-1.1-.121h-2.932v-.122zm-20.16 4.887l5.987-13.44h1.222l5.987 13.44h1.955v3.91h-2.322v-1.955h-12.462v1.954h-2.322v-4.032h1.955v.123zm6.598-9.897l-4.276 9.897h8.43l-4.154-9.897zm-11.118 5.01v6.842h-2.322v-2.322c-.366.367-.733.733-1.099.978-.489.366-.978.733-1.467.977a7.043 7.043 0 01-1.71.61c-.611.123-1.222.245-1.833.245-1.1 0-2.2-.244-3.177-.61-.977-.367-1.832-.978-2.688-1.833-.733-.733-1.344-1.71-1.832-2.566-.367-.977-.611-1.955-.611-3.177 0-2.199.855-4.276 2.444-5.742 1.466-1.466 3.543-2.322 5.742-2.322 1.711 0 3.177.489 4.398 1.222 1.344.855 2.322 1.955 2.933 3.421.366.611.489 1.344.733 2.077.366.611.489 1.466.489 2.2zm-8.186-6.72c-.49 0-1.1.122-1.589.244-.489.122-.977.366-1.466.61-.489.245-.855.612-1.222.978-.366.367-.733.733-.977 1.222-.245.489-.489.977-.611 1.466s-.244.978-.244 1.589c0 .488.122.977.244 1.466s.366.977.61 1.466c.245.489.612.855.978 1.222.367.366.733.733 1.222.977.489.245.978.489 1.466.611.489.122.978.244 1.466.244.489 0 1.1-.122 1.589-.244.488-.122.977-.366 1.466-.61.489-.245.855-.612 1.222-.978.366-.367.733-.733.977-1.222s.489-.977.611-1.466.244-.978.244-1.589c0-.855-.122-1.588-.488-2.321-.245-.733-.733-1.344-1.344-1.955-.611-.61-1.222-.977-1.955-1.344-.489-.244-1.344-.366-2.2-.366zm-9.408 13.684h-2.444l-6.842-15.15-6.964 15.15h-2.688c3.054-6.965 6.23-13.44 9.285-20.404h.611c3.055 6.964 6.11 13.44 9.164 20.404h-.122zM183.27 35.92v10.752l11.118-10.874h.367v15.395h-2.322V40.319l-11.118 10.875h-.489V35.799h2.321v.122h.123z" fill="#fff"/></g><defs><clipPath id="clip0"><path fill="#fff" d="M0 0h195v86.137H0z"/></clipPath></defs></svg>