<svg width="87" height="86" fill="none" xmlns="http://www.w3.org/2000/svg"><path d="M83.635 2.354H3.365a1 1 0 00-1 1v67.6a1 1 0 001 1h80.27a1 1 0 001-1v-67.6a1 1 0 00-1-1zM43.5 71.954v12.492" stroke="#000" stroke-width="3" stroke-miterlimit="10"/><path d="M20.25 82.946a1.5 1.5 0 100 3v-3zm46.5 3a1.5 1.5 0 000-3v3zm-46.5 0h46.5v-3h-46.5v3z" fill="#000"/><path d="M2.365 63.03h82.27M43.5 53.647c11.598 0 21-9.382 21-20.955 0-11.573-9.402-20.954-21-20.954s-21 9.381-21 20.954 9.402 20.955 21 20.955z" stroke="#000" stroke-width="3" stroke-miterlimit="10"/><path d="M32.718 41.744a1.5 1.5 0 002.145 2.098l-2.145-2.098zm22.241-18.45a1.5 1.5 0 00-2.144-2.098l2.145 2.097zM34.864 43.841L54.96 23.292l-2.144-2.097-20.097 20.548 2.145 2.098z" fill="#FF4940"/><path d="M50.555 44.118a4.065 4.065 0 100-8.129 4.065 4.065 0 000 8.13zM37.274 29.314a4.064 4.064 0 100-8.13 4.064 4.064 0 000 8.13z" stroke="#FF4940" stroke-width="3" stroke-miterlimit="10"/></svg>