<svg width="36" height="36" fill="none" xmlns="http://www.w3.org/2000/svg"><circle cx="18" cy="18" r="18" fill="#FFF"/><path d="M17.138 21.58c-1.358-.142-2.583-.476-3.63-1.296-.13-.102-.265-.2-.384-.314-.459-.441-.505-.946-.142-1.466.31-.445.832-.564 1.374-.308.105.05.205.111.3.177 1.954 1.343 4.638 1.38 6.599.06a1.8 1.8 0 01.643-.332c.468-.12.904.052 1.155.462.287.467.283.924-.07 1.287-.542.556-1.195.959-1.92 1.24-.684.266-1.435.4-2.178.488.112.122.165.182.235.253 1.009 1.013 2.022 2.022 3.027 3.039.343.346.414.775.226 1.178-.207.44-.668.73-1.12.7-.287-.02-.511-.163-.71-.363-.76-.766-1.536-1.518-2.282-2.299-.217-.226-.321-.183-.513.014a152.53 152.53 0 01-2.327 2.336c-.351.346-.77.409-1.177.21-.433-.21-.709-.652-.688-1.096.015-.3.163-.53.37-.736.997-.997 1.993-1.996 2.989-2.995.065-.066.127-.137.223-.24z" fill="#F24A41"/><path fill="#F24A41" d="M17.965 18.108c-2.423-.008-4.409-2.017-4.395-4.443a4.44 4.44 0 014.448-4.423c2.451.006 4.419 2.012 4.407 4.49-.013 2.422-2.013 4.384-4.46 4.376zm2.201-4.437A2.16 2.16 0 0018 11.506a2.162 2.162 0 00-2.17 2.191 2.16 2.16 0 002.182 2.148 2.155 2.155 0 002.154-2.174z"/></svg>