<svg width="20" height="26" fill="none" xmlns="http://www.w3.org/2000/svg"><path d="M4.792.853a3.365 3.365 0 00-3.228 3.472 3.322 3.322 0 003.463 3.201 3.365 3.365 0 003.228-3.472 3.322 3.322 0 00-3.463-3.2zm.176 5.005a1.661 1.661 0 01-1.731-1.6A1.682 1.682 0 014.85 2.52a1.661 1.661 0 011.732 1.6 1.682 1.682 0 01-1.614 1.737zm10.212 4.598a3.365 3.365 0 00-3.227 3.472 3.322 3.322 0 003.463 3.2 3.365 3.365 0 003.228-3.471 3.322 3.322 0 00-3.463-3.201zm.177 5.005a1.661 1.661 0 01-1.731-1.6 1.682 1.682 0 011.614-1.737 1.661 1.661 0 011.731 1.6 1.682 1.682 0 01-1.614 1.736zm.019-13.368L3.607 14.753a.833.833 0 101.225 1.132L16.6 3.225a.833.833 0 10-1.224-1.132zm3.387 21.264l-17.264.321a.84.84 0 00-.824.85.83.83 0 00.846.82l17.264-.322a.84.84 0 00.824-.85.83.83 0 00-.846-.82z" fill="#FF4940"/></svg>