<svg width="70" height="79" fill="none" xmlns="http://www.w3.org/2000/svg"><path d="M68.588 72.195l-33.056 5.998-.032.005a2.419 2.419 0 01-.194.032l-.064.007a2.572 2.572 0 01-.237.013H35c-.083 0-.164-.005-.243-.013l-.058-.007a2.455 2.455 0 01-.205-.033l-.025-.004-.044-.01h-.005L1.412 72.194C.576 72.01 0 71.423 0 70.752V2.044c0-.47.286-.913.772-1.196C1.26.564 1.89.473 2.475.602l32.526 5.881L67.525.602c.174-.038.353-.057.531-.057.418 0 .83.104 1.172.303.486.283.772.726.772 1.196v68.708c0 .67-.576 1.26-1.412 1.443zm-64.7-2.575l29.168 5.145V9.175L3.888 4.029v65.59zM66.112 4.03L36.944 9.174v65.59l29.168-5.145V4.03z" fill="#000"/><path d="M42.244 66.105l17.505-2.587a2.49 2.49 0 01.533-.057c.846 0 1.625.43 1.868 1.09.294.796-.305 1.625-1.338 1.852L43.307 68.99c-1.032.226-2.107-.236-2.401-1.033-.294-.796.305-1.625 1.338-1.852zm0-7.498l17.505-2.586a2.43 2.43 0 01.533-.058c.846 0 1.625.43 1.868 1.09.294.797-.305 1.626-1.338 1.852l-17.505 2.587c-1.032.227-2.107-.236-2.401-1.032-.294-.797.305-1.626 1.338-1.853zm0-7.497l17.505-2.587a2.49 2.49 0 01.533-.057c.846 0 1.625.43 1.868 1.09.294.796-.305 1.625-1.338 1.852l-17.505 2.586c-1.032.227-2.107-.235-2.401-1.032-.294-.796.305-1.626 1.338-1.852zm0-38.718l17.505-2.587c.175-.038.354-.057.532-.057.418 0 .83.104 1.171.303.486.283.772.726.772 1.196v31.221c0 .67-.576 1.259-1.412 1.442l-17.505 2.587c-.586.129-1.217.038-1.703-.246-.486-.283-.772-.726-.772-1.196v-31.22c0-.671.576-1.26 1.412-1.443zm2.475 30.677l13.618-1.733V13.233l-13.618 1.734v28.102zM26.694 15.277L9.186 12.69c-1.033-.227-1.632-1.056-1.338-1.853.243-.66 1.022-1.09 1.869-1.09.176 0 .355.02.533.058l17.506 2.587c1.032.226 1.632 1.056 1.338 1.852-.294.797-1.37 1.259-2.401 1.033zM9.718 63.46c.176 0 .355.02.532.058l17.507 2.587c1.032.227 1.631 1.056 1.338 1.852-.294.797-1.37 1.26-2.402 1.033L9.187 66.403c-1.033-.227-1.632-1.056-1.338-1.853.243-.66 1.022-1.09 1.869-1.09zm16.976-1.968L9.186 58.906c-1.033-.227-1.632-1.056-1.338-1.853.243-.66 1.022-1.09 1.869-1.09.176 0 .355.019.533.058l17.506 2.587c1.032.226 1.632 1.056 1.338 1.852-.294.797-1.37 1.259-2.401 1.032z" fill="#000"/></svg>