<svg width="367" height="106" fill="none" xmlns="http://www.w3.org/2000/svg"><path d="M4.99 41.59l.005.005L5 41.6c2.64 2.577 6.028 3.692 9.139 2.627 2.203-.713 3.538-1.786 6.486-4.749l6.485-6.518v58.328c0 4.441.202 6.412 1.296 8.61 1.528 3.074 4.788 4.92 8.81 4.92 4.02 0 7.28-1.846 8.809-4.92 1.093-2.198 1.295-4.169 1.295-8.61V14.346c0-3.506-.184-7.135-2.943-9.987l-.01-.01c-1.814-1.824-4.388-2.9-7.432-2.9-4.59 0-7.843 2.327-10.514 5.012L7.09 25.89c-2.964 2.978-4.02 4.386-4.726 6.595l-.002.005c-.97 3.09.032 6.492 2.627 9.1zm140.356 0l.005.005.005.005c2.639 2.577 6.028 3.692 9.139 2.627 2.203-.713 3.539-1.786 6.486-4.749l6.486-6.518v58.328c0 4.441.201 6.412 1.295 8.61 1.529 3.074 4.788 4.92 8.809 4.92 4.022 0 7.281-1.846 8.81-4.92 1.094-2.198 1.295-4.169 1.295-8.61V14.346c0-3.506-.184-7.135-2.943-9.987h.001l-.01-.01c-1.815-1.824-4.388-2.9-7.433-2.9-4.59 0-7.843 2.327-10.514 5.012l-19.33 19.429c-2.964 2.978-4.019 4.386-4.726 6.595l-.001.005c-.971 3.09.031 6.492 2.626 9.1z" stroke="#fff" stroke-width="2"/><path d="M304 82.09c0 6.355 3.239 11.721 7.463 15.393 6.055 5.224 12.744 7.201 23.305 7.201 17.742 0 31.613-10.52 31.613-29.512 0-13.062-6.126-19.77-13.026-23.3 6.619-3.53 12.181-9.743 12.181-21.18 0-18.005-13.518-28.243-30.627-28.243-8.942 0-15.912 2.119-21.615 7.131-2.605 2.33-4.718 5.649-5.914 8.826-.845 2.189-1.338 4.66-1.338 6.92 0 5.436 3.872 8.684 8.519 8.684 2.676 0 4.154-.495 5.562-1.766 1.479-1.27 2.253-2.541 3.45-5.577 2.112-5.296 5.21-7.555 11.195-7.555 7.041 0 12.321 4.448 12.321 12.568 0 8.048-4.999 12.426-12.673 12.708-1.901.07-3.661.353-5.21 1.13-2.394 1.27-3.802 3.742-3.802 6.849 0 3.177 1.408 5.648 3.802 6.919 1.549.847 3.309 1.059 5.21 1.13 8.73.352 13.518 5.295 13.518 13.767 0 8.967-5.985 13.839-13.307 13.839-7.393 0-10.561-2.542-12.462-8.05-1.056-2.965-1.971-4.306-3.45-5.648-1.408-1.27-2.957-1.835-5.633-1.835-2.745 0-5.069.988-6.688 2.753-1.549 1.624-2.394 4.025-2.394 6.849zm-21.951-41.007c0-3.424-1.635-5.94-4.052-7.197-1.777-.908-3.412-1.048-7.605-1.048h-40.8c-4.193 0-5.828.14-7.605 1.048-2.417 1.258-4.052 3.773-4.052 7.197s1.635 5.939 4.052 7.197c1.777.908 3.412 1.047 7.605 1.047h40.8c4.193 0 5.828-.14 7.605-1.047 2.417-1.258 4.052-3.773 4.052-7.197zm0 31.162c0-3.424-1.635-5.939-4.052-7.197-1.777-.908-3.412-1.048-7.605-1.048h-40.8c-4.193 0-5.828.14-7.605 1.049-2.417 1.257-4.052 3.772-4.052 7.196s1.635 5.94 4.052 7.197c1.777.908 3.412 1.048 7.605 1.048h40.8c4.193 0 5.828-.14 7.605-1.048 2.417-1.258 4.052-3.773 4.052-7.197z" fill="#fff"/><path d="M130.282 61.656l.006-.004c2.744-1.452 4.538-4.339 4.538-8.122 0-3.782-1.794-6.67-4.538-8.122l-.006-.003c-2.003-1.041-3.858-1.167-7.981-1.167h-10.806V33.432c0-4.123-.126-5.978-1.167-7.98l-.003-.007c-1.453-2.744-4.34-4.538-8.123-4.538-3.782 0-6.67 1.794-8.122 4.538l-.003.006c-1.041 2.003-1.167 3.858-1.167 7.98v10.807H82.104c-4.123 0-5.978.126-7.98 1.167l-.007.003c-2.744 1.453-4.538 4.34-4.538 8.122 0 3.783 1.794 6.67 4.538 8.122l.006.004c2.003 1.041 3.858 1.167 7.981 1.167H92.91v10.806c0 4.123.126 5.978 1.167 7.98l.003.007c1.453 2.743 4.34 4.538 8.122 4.538 3.783 0 6.67-1.794 8.123-4.538l.003-.006c1.041-2.003 1.167-3.858 1.167-7.981V62.823h10.806c4.123 0 5.978-.126 7.981-1.167z" stroke="#fff" stroke-width="2"/></svg>