<svg width="71" height="90" fill="none" xmlns="http://www.w3.org/2000/svg"><path d="M14.152 31.525c-.305 0-.598.146-.814.406-.217.26-.338.613-.338.982 0 .368.121.72.338.98.216.26.509.407.814.407h37.57c.306 0 .6-.146.816-.406.216-.26.337-.613.337-.981s-.121-.721-.337-.982a1.063 1.063 0 00-.815-.406h-37.57zm24.168 9.712c0-.367-.12-.72-.337-.98a1.063 1.063 0 00-.814-.407H14.152c-.305 0-.598.146-.814.406a1.54 1.54 0 00-.338.981c0 .368.121.721.338.982.216.26.509.406.814.406H37.17c.305 0 .598-.146.814-.406a1.54 1.54 0 00.338-.982z" fill="#000"/><path d="M68.875 89.8c.365 0 .714-.146.972-.406s.403-.614.403-.982V2.388c0-.368-.145-.721-.403-.982A1.369 1.369 0 0068.875 1H21.526a1.363 1.363 0 00-1.12.395L1.156 20.82c-.087.09-.16.19-.22.299l-.042.076a1.396 1.396 0 00-.144.617v66.6c0 .368.145.721.403.982.258.26.607.406.972.406h66.75zM67.5 87.025h-64V23.2h17.875c.365 0 .714-.146.972-.406s.403-.614.403-.982V3.776H67.5v83.25zM20 5.738v14.687H5.446L20 5.738z" fill="#000"/><path d="M47.483 57a5.5 5.5 0 105.095 3.392A5.505 5.505 0 0047.483 57zm0 8.747a3.241 3.241 0 11.034-6.483 3.241 3.241 0 01-.034 6.483z" fill="#FF4940"/><path d="M57.844 58.78l-.726-.557a.612.612 0 01-.25-.557l.078-.903a2.854 2.854 0 00-.68-2.104 2.827 2.827 0 00-1.974-.977l-.898-.05a.608.608 0 01-.505-.323l-.415-.796a2.839 2.839 0 00-1.7-1.395 2.81 2.81 0 00-2.18.247l-.78.446a.607.607 0 01-.6 0l-.78-.446a2.811 2.811 0 00-3.88 1.148l-.421.802a.611.611 0 01-.505.323l-.909.084a2.815 2.815 0 00-1.974.976 2.845 2.845 0 00-.68 2.104l.06.914a.616.616 0 01-.248.557l-.727.557a2.838 2.838 0 00-1.123 1.9 2.854 2.854 0 00.57 2.134l.553.713a.615.615 0 01.084.596l-.355.785a2.854 2.854 0 00.707 3.123c.276.258.601.458.956.588l.847.3a.61.61 0 01.394.457l.105.518-2.072 6.786a1.12 1.12 0 00.276 1.12 1.106 1.106 0 001.114.273l2.672-.842 1.662 2.262a1.11 1.11 0 00.893.451h.188a1.105 1.105 0 00.87-.774l1.596-5.253c.128.022.258.034.388.039.096-.005.193-.014.288-.028l1.707 5.259a1.115 1.115 0 00.892.763h.178a1.104 1.104 0 00.892-.451l1.663-2.262 2.67.841a1.102 1.102 0 001.121-.28 1.117 1.117 0 00.265-1.13l-2.117-6.523.155-.78a.614.614 0 01.394-.457l.848-.3a2.824 2.824 0 001.61-1.503 2.853 2.853 0 00.052-2.208l-.327-.841a.616.616 0 01.084-.596l.554-.713a2.846 2.846 0 00.57-2.135 2.85 2.85 0 00-1.124-1.899l-.006.017zm-13.8 17.666l-.825-1.114a1.109 1.109 0 00-1.225-.402l-1.413.446.936-3.075a2.758 2.758 0 001.885.228l.875-.206a.613.613 0 01.555.173l.299.312-1.086 3.638zm8.967-1.521a1.103 1.103 0 00-1.224.4l-.854 1.16-1.164-3.594.388-.4a.615.615 0 01.555-.168l.875.206a2.758 2.758 0 001.801-.184l.976 3.02-1.353-.44zM56.67 61.46l-.554.713a2.861 2.861 0 00-.394 2.785l.327.841a.616.616 0 01-.365.78l-.848.301a2.843 2.843 0 00-1.824 2.118l-.177.885a.615.615 0 01-.49.48.607.607 0 01-.241-.006l-.854-.207a2.818 2.818 0 00-2.671.791l-.654.647a.61.61 0 01-.676.138.61.61 0 01-.2-.138l-.626-.646a2.843 2.843 0 00-2.034-.864c-.214 0-.428.024-.637.072l-.876.207a.607.607 0 01-.731-.474l-.178-.886a2.858 2.858 0 00-.626-1.294 2.837 2.837 0 00-1.175-.823l-.848-.3a.608.608 0 01-.4-.559.613.613 0 01.04-.238l.316-.825a2.865 2.865 0 00-.393-2.785l-.555-.713a.614.614 0 01.122-.87l.726-.557a2.85 2.85 0 001.158-2.546l-.077-.885a.615.615 0 01.554-.663l.898-.05a2.827 2.827 0 002.339-1.516l.42-.796a.607.607 0 01.838-.245l.781.445a2.826 2.826 0 002.771 0l.781-.446a.608.608 0 01.87.229l.416.813a2.827 2.827 0 002.339 1.515l.898.05a.608.608 0 01.554.664l-.078.902a2.87 2.87 0 001.159 2.546l.726.557a.611.611 0 01.228.651.616.616 0 01-.107.218l.028-.016z" fill="#FF4940"/></svg>