<svg width="74" height="87" viewBox="0 0 74 87" fill="none" xmlns="http://www.w3.org/2000/svg">
<path fill-rule="evenodd" clip-rule="evenodd" d="M72.4567 2.82457L40.7725 14.9825C42.4918 17.5614 43.597 20.5088 43.9654 23.7018C44.5795 23.2105 45.5619 22.3509 45.6847 22.2281C46.4216 21.614 47.2812 21 48.1409 20.386C50.597 18.6667 53.176 17.0702 55.3865 15.5965C61.2812 11.6667 67.176 7.85966 73.0707 3.92984C73.8076 3.56142 73.4391 2.57896 72.4567 2.82457Z" fill="#FFCC00"/>
<path fill-rule="evenodd" clip-rule="evenodd" d="M39.5436 13.2632C27.0173 -0.245614 10.4383 12.1579 3.1927 0C-7.00029 13.2632 9.45586 31.0702 23.9471 21.7368C28.1225 19.0351 32.912 15.4737 39.5436 13.2632Z" fill="#E30016"/>
<path fill-rule="evenodd" clip-rule="evenodd" d="M40.7719 14.9824C38.0702 15.9649 35.614 17.0701 33.1579 18.5438C33.6491 19.1579 34.0175 20.0175 34.0175 20.8772C34.0175 22.8421 32.4211 24.5614 30.3333 24.5614C28.8596 24.5614 27.6316 23.7017 27.0175 22.5965C23.0877 25.6666 19.8947 29.1052 18.6667 32.9122C13.8772 47.2807 32.2982 49 37.7018 65.0877C40.6491 73.9298 36.4737 80.9298 31.6842 84.9824C31.3158 85.3508 30.7018 85.8421 30.8246 86.0877C30.9474 86.3333 31.0702 86.3333 32.5439 86.4561C49.1228 87.807 63 71.4736 57.9649 54.6491C55.2632 45.807 50.4737 42.614 46.5439 40.035C37.0877 33.6491 39.0526 28.3684 44.0877 23.7017C43.5965 20.5087 42.4912 17.4386 40.7719 14.9824ZM30.3333 19.0351C31.3158 19.0351 32.1754 19.8947 32.1754 20.8772C32.1754 21.8596 31.3158 22.7193 30.3333 22.7193C29.3509 22.7193 28.4912 21.8596 28.4912 20.8772C28.4912 19.8947 29.3509 19.0351 30.3333 19.0351Z" fill="#1B1918"/>
</svg>
