<svg width="36" height="36" fill="none" xmlns="http://www.w3.org/2000/svg"><circle cx="18" cy="18" r="18" fill="#fff"/><path d="M21.128 11.02h-6.256a3.857 3.857 0 0 0-3.852 3.852v6.256a3.857 3.857 0 0 0 3.852 3.852h6.256a3.857 3.857 0 0 0 3.852-3.852v-6.256a3.857 3.857 0 0 0-3.852-3.852zm2.614 10.108a2.617 2.617 0 0 1-2.614 2.614h-6.256a2.617 2.617 0 0 1-2.614-2.614v-6.256a2.617 2.617 0 0 1 2.614-2.614h6.256a2.617 2.617 0 0 1 2.613 2.614v6.256z" fill="#F24A41"/><path d="M18 14.403A3.601 3.601 0 0 0 14.403 18 3.601 3.601 0 0 0 18 21.597 3.601 3.601 0 0 0 21.597 18 3.601 3.601 0 0 0 18 14.403zm0 5.956A2.361 2.361 0 0 1 15.641 18c0-1.3 1.058-2.358 2.359-2.358 1.3 0 2.359 1.058 2.359 2.358S19.3 20.36 18 20.36zM21.748 13.353a.912.912 0 0 0-.908.908c0 .239.097.473.267.643a.915.915 0 0 0 .641.265c.24 0 .473-.097.642-.266a.912.912 0 0 0 0-1.285.912.912 0 0 0-.642-.265z" fill="#F24A41"/></svg>