<svg width="196" height="87" viewBox="0 0 196 87" fill="none" xmlns="http://www.w3.org/2000/svg">
<g clip-path="url(#clip0)">
<path fill-rule="evenodd" clip-rule="evenodd" d="M72.4562 2.82457L40.772 14.9825C42.4913 17.5614 43.5965 20.5088 43.965 23.7018C44.579 23.2105 45.5614 22.3509 45.6843 22.2281C46.4211 21.614 47.2807 21 48.1404 20.386C50.5965 18.6667 53.1755 17.0702 55.386 15.5965C61.2807 11.6667 67.1755 7.85966 73.0702 3.92984C73.8071 3.56142 73.4386 2.57896 72.4562 2.82457Z" fill="#FFCC00"/>
<path fill-rule="evenodd" clip-rule="evenodd" d="M39.5433 13.2632C27.017 -0.245614 10.4381 12.1579 3.19245 0C-7.00053 13.2632 9.45561 31.0702 23.9468 21.7368C28.1223 19.0351 32.9118 15.4737 39.5433 13.2632Z" fill="#E30016"/>
<path fill-rule="evenodd" clip-rule="evenodd" d="M40.7719 14.9825C38.0702 15.9649 35.614 17.0702 33.1579 18.5439C33.6491 19.1579 34.0175 20.0175 34.0175 20.8772C34.0175 22.8421 32.4211 24.5614 30.3333 24.5614C28.8596 24.5614 27.6316 23.7017 27.0175 22.5965C23.0877 25.6667 19.8947 29.1053 18.6667 32.9123C13.8772 47.2807 32.2982 49 37.7018 65.0877C40.6491 73.9298 36.4737 80.9298 31.6842 84.9824C31.3158 85.3509 30.7018 85.8421 30.8246 86.0877C30.9474 86.3333 31.0702 86.3333 32.5439 86.4561C49.1228 87.807 63 71.4737 57.9649 54.6491C55.2632 45.807 50.4737 42.614 46.5439 40.0351C37.0877 33.6491 39.0526 28.3684 44.0877 23.7017C43.5965 20.5088 42.4912 17.4386 40.7719 14.9825ZM30.3333 19.0351C31.3158 19.0351 32.1754 19.8947 32.1754 20.8772C32.1754 21.8596 31.3158 22.7193 30.3333 22.7193C29.3509 22.7193 28.4912 21.8596 28.4912 20.8772C28.4912 19.8947 29.3509 19.0351 30.3333 19.0351Z" fill="#1B1918"/>
<path fill-rule="evenodd" clip-rule="evenodd" d="M71.8423 67.0526L72.5791 62.0175H72.7019L74.7897 66.193L76.7546 62.0175H76.8774L77.6142 67.0526H77.123L76.6318 63.4912L74.7897 67.0526H74.6668L72.8247 63.3684L72.3335 67.0526H71.8423ZM80.93 62.0175H83.7546V62.5088H81.4212V64.1053H83.7546V64.5965H81.4212V66.5614H83.7546V67.0526H80.93V62.0175ZM90.2633 64.7193V67.0526H89.6493V64.7193L89.5265 64.5965L87.4388 67.0526H86.8247L89.2809 64.2281L87.0704 62.0175H87.8072L89.7721 64.1053V62.0175H90.2633V64.1053L92.2282 62.0175H92.9651L90.7546 64.2281L93.2107 67.0526H92.5967L90.5089 64.5965L90.2633 64.7193ZM96.2809 62.0175H96.7721V63.8597L98.737 62.0175H99.4739L97.0177 64.2281L99.5967 67.0526H98.9826L96.7721 64.7193V67.0526H96.2809V62.0175ZM105.123 61.8947C105.86 61.8947 106.474 62.1404 107.088 62.6316C107.579 63.1228 107.825 63.7368 107.825 64.4737C107.825 65.2105 107.579 65.8246 107.088 66.3158C106.597 66.807 105.983 67.0526 105.246 67.0526C104.509 67.0526 103.895 66.807 103.404 66.3158C102.912 65.8246 102.667 65.2105 102.667 64.4737C102.667 63.9825 102.79 63.4912 103.035 63.1228C103.281 62.7544 103.526 62.386 104.018 62.1404C104.263 62.0175 104.755 61.8947 105.123 61.8947ZM105.246 62.386C104.877 62.386 104.509 62.5088 104.141 62.6316C103.772 62.8772 103.526 63.1228 103.404 63.3684C103.158 63.7368 103.158 64.1053 103.158 64.4737C103.158 65.0877 103.404 65.5789 103.772 65.9474C104.141 66.3158 104.632 66.5614 105.246 66.5614C105.614 66.5614 105.983 66.4386 106.351 66.3158C106.719 66.0702 106.965 65.8246 107.088 65.5789C107.334 65.2105 107.334 64.8421 107.334 64.4737C107.334 64.1053 107.211 63.7368 107.088 63.3684C106.842 63 106.597 62.7544 106.351 62.6316C105.983 62.5088 105.614 62.386 105.246 62.386ZM111.141 67.0526L111.877 62.0175H112L114.088 66.193L116.053 62.0175H116.176L116.912 67.0526H116.421L115.93 63.4912L114.211 67.0526H114.088L112.246 63.3684L111.755 67.0526H111.141ZM120.228 62.0175H120.719V64.1053H123.298V62.0175H123.79V67.0526H123.298V64.5965H120.719V67.0526H120.228V62.0175ZM129.439 62.0175L131.772 67.0526H131.281L130.544 65.3333H128.334L127.597 67.0526H126.983L129.316 62.0175H129.439ZM129.316 63.1228L128.456 64.9649H130.176L129.316 63.1228ZM133.86 62.5088V62.0175H136.562V62.5088H135.456V67.0526H135.088V62.5088H133.86ZM139.877 62.0175H140.369V64.1053H142.948V62.0175H143.439V67.0526H142.948V64.5965H140.369V67.0526H139.877V62.0175ZM147.123 62.0175H147.614V64.2281H147.983C148.597 64.2281 149.088 64.2281 149.456 64.3509C149.702 64.4737 149.948 64.5965 150.193 64.8421C150.316 65.0877 150.439 65.3333 150.439 65.7018C150.439 66.0702 150.316 66.3158 150.193 66.5614C150.07 66.807 149.825 66.9298 149.579 67.0526C149.334 67.1754 148.842 67.1754 148.228 67.1754H147.246V62.0175H147.123ZM147.614 66.5614H148.105C148.719 66.5614 149.088 66.5614 149.211 66.4386C149.334 66.4386 149.456 66.3158 149.579 66.193C149.702 66.0702 149.702 65.8246 149.702 65.5789C149.702 65.3333 149.579 65.0877 149.456 64.9649C149.333 64.8421 149.211 64.7193 148.965 64.7193C148.719 64.7193 148.351 64.7193 147.86 64.7193H147.369V66.5614H147.614ZM150.93 62.0175H151.421V67.0526H150.93V62.0175ZM154.983 62.0175H157.93V62.5088H155.597V64.1053H157.93V64.5965H155.597V66.5614H157.93V67.0526H155.105V62.0175H154.983ZM165.053 67.7895H164.562V66.5614H164.93L166.895 62.0175H167.018L169.105 66.5614H169.474V67.7895H168.983V67.0526H164.93V67.7895H165.053ZM165.544 66.5614H168.614L167.018 63L165.544 66.5614ZM172.79 62.0175H173.772C174.141 62.0175 174.509 62.0175 174.755 62.1404C175 62.2632 175.123 62.386 175.246 62.6316C175.369 62.8772 175.369 63 175.369 63.2456C175.369 63.4912 175.369 63.7368 175.246 63.8597C175.123 63.9825 175 64.2281 174.755 64.3509C175 64.4737 175.246 64.5965 175.369 64.7193C175.491 64.8421 175.614 64.9649 175.737 65.2105C175.86 65.3333 175.86 65.5789 175.86 65.8246C175.86 66.193 175.737 66.5614 175.369 66.807C175.123 67.0526 174.632 67.1754 174.141 67.1754H172.79V62.0175ZM173.281 62.5088V64.1053H173.526C173.895 64.1053 174.141 64.1053 174.263 63.9825C174.386 63.8597 174.509 63.8597 174.632 63.7368C174.755 63.614 174.755 63.4912 174.755 63.2456C174.755 63 174.632 62.8772 174.509 62.7544C174.386 62.6316 174.141 62.5088 173.772 62.5088H173.281ZM173.281 64.5965V66.5614H173.895C174.263 66.5614 174.509 66.5614 174.755 66.4386C174.877 66.3158 175 66.193 175.123 66.0702C175.246 65.9474 175.246 65.7018 175.246 65.5789C175.246 65.3333 175.123 65.2105 175 64.9649C174.877 64.8421 174.632 64.7193 174.386 64.5965C174.263 64.5965 173.895 64.5965 173.526 64.5965H173.281ZM179.176 62.0175H182V62.5088H179.667V64.1053H182V64.5965H179.667V66.5614H182V67.0526H179.176V62.0175ZM185.562 62.0175H186.544C187.158 62.0175 187.526 62.0175 187.649 62.1404C187.895 62.2632 188.141 62.386 188.386 62.6316C188.509 62.8772 188.632 63.1228 188.632 63.4912C188.632 63.8597 188.509 64.1053 188.386 64.3509C188.263 64.5965 188.018 64.7193 187.649 64.8421C187.404 64.8421 187.035 64.9649 186.421 64.9649H186.053V67.2982H185.562V62.0175ZM186.053 62.5088V64.2281H186.912C187.281 64.2281 187.526 64.2281 187.649 64.1053C187.772 63.9825 187.895 63.9825 188.018 63.8597C188.141 63.7368 188.141 63.614 188.141 63.3684C188.141 63.2456 188.141 63 188.018 62.8772C187.895 62.7544 187.772 62.6316 187.649 62.6316C187.526 62.6316 187.281 62.5088 186.912 62.5088H186.053ZM196 67.0526H195.509V63.2456L192.193 67.0526H192.07V62.0175H192.562V65.9474L195.877 62.0175H196V67.0526Z" fill="#3A3A3A"/>
<path fill-rule="evenodd" clip-rule="evenodd" d="M171.316 35.614C173.526 35.614 175.491 36.3509 177.088 37.9474C177.948 38.6842 178.439 39.6667 178.93 40.5263C179.298 41.5088 179.544 42.4912 179.544 43.5965C179.544 44.7017 179.298 45.807 178.93 46.7895C178.562 47.7719 177.948 48.6316 177.088 49.4912C176.351 50.2281 175.369 50.8421 174.386 51.3333C173.404 51.7017 172.421 51.9473 171.316 51.9473C170.702 51.9473 170.088 51.8245 169.474 51.7017C168.86 51.5789 168.369 51.3333 167.755 51.0877C167.263 50.8421 166.772 50.4737 166.281 50.1052C165.912 49.8596 165.544 49.4912 165.176 49.1228V56.7368H162.842V44.4561C162.842 41.8772 163.702 39.6667 165.176 38.0702C166.772 36.4737 168.737 35.614 171.316 35.614ZM171.193 37.8245C169.474 37.8245 168.123 38.4386 166.895 39.5438C166.281 40.1579 165.912 40.7719 165.544 41.5088C165.298 42.2456 165.053 42.9824 165.053 43.8421C165.053 44.4561 165.176 44.9474 165.298 45.4386C165.421 45.9298 165.667 46.421 165.912 46.9123C166.158 47.4035 166.526 47.7719 166.895 48.1403C167.263 48.5088 167.632 48.7544 168.123 49.1228C168.614 49.3684 169.105 49.614 169.597 49.7368C170.088 49.8596 170.579 49.9824 171.193 49.9824C171.684 49.9824 172.176 49.8596 172.667 49.7368C173.158 49.614 173.649 49.3684 174.141 49.1228C174.632 48.8772 175 48.5088 175.369 48.1403C175.737 47.7719 176.105 47.4035 176.351 46.9123C176.597 46.421 176.842 45.9298 176.965 45.4386C177.088 44.9474 177.211 44.4561 177.211 43.9649C177.211 43.4737 177.088 42.9824 176.965 42.3684C176.842 41.8772 176.597 41.3859 176.351 40.8947C176.105 40.4035 175.737 40.0351 175.369 39.6666C175 39.2982 174.632 38.9298 174.141 38.6842C173.649 38.4386 173.158 38.193 172.667 38.0702C172.298 37.9474 171.684 37.8245 171.193 37.8245ZM158.053 46.1754L159.895 47.1579L159.772 47.2807C159.526 47.7719 159.158 48.2631 158.912 48.7544C158.544 49.2456 158.298 49.614 157.807 49.8596C157.439 50.2281 157.07 50.4737 156.579 50.7193C156.211 50.9649 155.719 51.2105 155.228 51.3333C154.737 51.4561 154.246 51.5789 153.755 51.7017C153.263 51.8245 152.649 51.8245 152.158 51.8245C150.807 51.8245 149.702 51.5789 148.719 51.2105C147.737 50.8421 146.877 50.2281 146.141 49.3684C145.404 48.5088 144.912 47.6491 144.544 46.7895C144.176 45.807 144.053 44.8245 144.053 43.8421C144.053 41.8772 144.667 40.1579 145.895 38.5614C146.632 37.5789 147.614 36.8421 148.597 36.3509C149.702 35.8596 150.807 35.614 152.158 35.614C153.509 35.614 154.737 35.8596 155.842 36.3509C156.948 36.8421 157.93 37.5789 158.667 38.5614C159.281 39.2982 159.649 40.0351 160.018 40.8947C160.263 41.7544 160.509 42.7368 160.509 43.8421V43.9649H146.509C146.509 44.8245 146.632 45.4386 147 46.1754C147.246 46.9123 147.737 47.5263 148.228 48.0175C148.719 48.5088 149.334 49 150.07 49.2456C150.684 49.4912 151.421 49.614 152.281 49.614C153.018 49.614 153.755 49.4912 154.491 49.2456C154.86 49.1228 155.228 49 155.474 48.7544C155.719 48.6316 156.088 48.3859 156.334 48.1403C156.579 47.8947 156.825 47.6491 157.193 47.2807C157.439 46.9123 157.807 46.5438 158.053 46.0526L158.176 45.9298L158.053 46.1754ZM157.684 42C157.562 41.6316 157.439 41.1403 157.316 40.7719C157.07 40.4035 156.948 40.0351 156.702 39.6666C156.456 39.421 156.211 39.0526 155.842 38.807C155.474 38.5614 155.105 38.3158 154.737 38.193C154.369 37.9474 153.877 37.8245 153.509 37.8245C153.141 37.7017 152.649 37.7017 152.158 37.7017C151.421 37.7017 150.684 37.8245 150.07 38.0702C149.456 38.3158 148.842 38.6842 148.351 39.1754C147.983 39.5438 147.614 39.9123 147.369 40.4035C147.123 40.8947 146.877 41.386 146.632 42H157.684ZM135.825 51.4561H131.158V35.9824H135.825C137.544 35.9824 138.895 36.3509 139.632 37.2105C140 37.5789 140.369 38.0702 140.491 38.5614C140.737 39.0526 140.737 39.5438 140.737 40.0351C140.737 40.8947 140.614 41.5088 140.246 42.1228C140 42.614 139.509 42.9824 139.018 43.2281C139.877 43.5965 140.491 44.0877 140.983 44.7017C141.474 45.4386 141.719 46.2982 141.719 47.2807C141.719 48.7544 141.228 49.8596 140.246 50.5965C139.263 51.0877 137.79 51.4561 135.825 51.4561ZM133.491 38.0702V42.4912H134.597C135.211 42.4912 135.702 42.4912 136.07 42.4912C136.439 42.4912 136.684 42.4912 136.93 42.3684C137.053 42.3684 137.298 42.2456 137.421 42.1228C137.544 42 137.79 41.8772 137.912 41.7544C138.035 41.6316 138.158 41.3859 138.281 41.1403C138.404 40.8947 138.404 40.6491 138.404 40.4035C138.404 40.1579 138.404 39.7895 138.281 39.5438C138.158 39.2982 138.035 39.0526 137.912 38.9298C137.79 38.6842 137.544 38.5614 137.421 38.4386C137.298 38.3158 137.053 38.3158 136.93 38.193C136.807 38.193 136.439 38.0702 136.07 38.0702C135.702 38.0702 135.211 38.0702 134.597 38.0702H133.491ZM133.491 44.5789V49.614H135.456C135.948 49.614 136.439 49.614 136.807 49.614C137.176 49.614 137.421 49.4912 137.667 49.4912C137.912 49.4912 138.035 49.3684 138.281 49.2456C138.404 49.1228 138.649 49 138.772 48.7544C138.895 48.5088 139.018 48.3859 139.141 48.1403C139.263 47.8947 139.263 47.6491 139.263 47.2807C139.263 46.9123 139.141 46.5438 139.018 46.1754C138.895 45.9298 138.649 45.5614 138.404 45.3158C138.158 45.0702 137.912 44.9474 137.544 44.8245C137.176 44.7017 136.807 44.7017 136.439 44.7017H133.491V44.5789ZM113.228 49.4912L119.246 35.9824H120.474L126.491 49.4912H128.456V53.421H126.123V51.4561H113.597V53.421H111.263V49.3684H113.228V49.4912ZM119.86 39.5438L115.562 49.4912H124.035L119.86 39.5438ZM108.684 44.5789V51.4561H106.351V49.1228C105.983 49.4912 105.614 49.8596 105.246 50.1052C104.755 50.4737 104.263 50.8421 103.772 51.0877C103.281 51.3333 102.667 51.5789 102.053 51.7017C101.439 51.8245 100.825 51.9473 100.211 51.9473C99.1054 51.9473 98.0002 51.7017 97.0177 51.3333C96.0353 50.9649 95.1756 50.3509 94.316 49.4912C93.5791 48.7544 92.9651 47.7719 92.4739 46.9123C92.1054 45.9298 91.8598 44.9474 91.8598 43.7193C91.8598 41.5088 92.7195 39.421 94.316 37.9474C95.7897 36.4737 97.8774 35.614 100.088 35.614C101.807 35.614 103.281 36.1052 104.509 36.8421C105.86 37.7017 106.842 38.807 107.456 40.2807C107.825 40.8947 107.948 41.6316 108.193 42.3684C108.562 42.9824 108.684 43.8421 108.684 44.5789ZM100.456 37.8245C99.9651 37.8245 99.3511 37.9474 98.8598 38.0702C98.3686 38.193 97.8774 38.4386 97.3861 38.6842C96.8949 38.9298 96.5265 39.2982 96.1581 39.6666C95.7897 40.0351 95.4212 40.4035 95.1756 40.8947C94.93 41.3859 94.6844 41.8772 94.5616 42.3684C94.4388 42.8596 94.316 43.3509 94.316 43.9649C94.316 44.4561 94.4388 44.9474 94.5616 45.4386C94.6844 45.9298 94.93 46.421 95.1756 46.9123C95.4212 47.4035 95.7897 47.7719 96.1581 48.1403C96.5265 48.5088 96.8949 48.8772 97.3861 49.1228C97.8774 49.3684 98.3686 49.614 98.8598 49.7368C99.3511 49.8596 99.8423 49.9824 100.334 49.9824C100.825 49.9824 101.439 49.8596 101.93 49.7368C102.421 49.614 102.912 49.3684 103.404 49.1228C103.895 48.8772 104.263 48.5088 104.632 48.1403C105 47.7719 105.369 47.4035 105.614 46.9123C105.86 46.421 106.105 45.9298 106.228 45.4386C106.351 44.9474 106.474 44.4561 106.474 43.8421C106.474 42.9824 106.351 42.2456 105.983 41.5088C105.737 40.7719 105.246 40.1579 104.632 39.5438C104.018 38.9298 103.404 38.5614 102.667 38.193C102.176 37.9474 101.316 37.8245 100.456 37.8245ZM91.0002 51.5789H88.544L81.6668 36.3509L74.6668 51.5789H71.9651C75.0353 44.5789 78.2282 38.0702 81.2984 31.0702H81.9125C84.9826 38.0702 88.0528 44.5789 91.123 51.5789H91.0002ZM184.211 36.1052V46.9123L195.386 35.9824H195.755V51.4561H193.421V40.5263L182.246 51.4561H181.755V35.9824H184.088V36.1052H184.211Z" fill="#3A3A3A"/>
</g>
<defs>
<clipPath id="clip0">
<rect width="196" height="86.5789" fill="white"/>
</clipPath>
</defs>
</svg>
