<svg width="195" height="87" viewBox="0 0 195 87" fill="none" xmlns="http://www.w3.org/2000/svg">
<g clip-path="url(#clip0)">
<path fill-rule="evenodd" clip-rule="evenodd" d="M72.0863 2.81022L40.5637 14.9061C42.2742 17.4719 43.3739 20.4042 43.7404 23.5809C44.3513 23.0922 45.3288 22.2369 45.4509 22.1147C46.184 21.5038 47.0393 20.8929 47.8945 20.282C50.3382 18.5715 52.9039 16.9831 55.1032 15.517C60.9679 11.6072 66.8325 7.81961 72.6972 3.90984C73.4303 3.5433 73.0637 2.56585 72.0863 2.81022Z" fill="#FFCC00"/>
<path fill-rule="evenodd" clip-rule="evenodd" d="M39.3412 13.1955C26.8788 -0.244361 10.3845 12.0959 3.17582 0C-6.96515 13.1955 9.40703 30.9117 23.8243 21.6259C27.9785 18.938 32.7435 15.3947 39.3412 13.1955Z" fill="#E30016"/>
<path fill-rule="evenodd" clip-rule="evenodd" d="M40.5638 14.906C37.8759 15.8834 35.4322 16.9831 32.9886 18.4492C33.4774 19.0601 33.8439 19.9154 33.8439 20.7707C33.8439 22.7256 32.2556 24.4361 30.1785 24.4361C28.7123 24.4361 27.4905 23.5808 26.8796 22.4812C22.9698 25.5357 19.7931 28.9568 18.5713 32.7443C13.8063 47.0395 32.1334 48.75 37.5093 64.7556C40.4416 73.5526 36.2875 80.5169 31.5225 84.5489C31.1559 84.9154 30.545 85.4041 30.6672 85.6485C30.7894 85.8928 30.9116 85.8928 32.3777 86.015C48.8721 87.359 62.6785 71.109 57.6691 54.3703C54.9811 45.5733 50.2161 42.3966 46.3063 39.8308C36.8984 33.4774 38.8533 28.2237 43.8627 23.5808C43.374 20.4041 42.2743 17.3496 40.5638 14.906ZM30.1785 18.938C31.1559 18.938 32.0112 19.7932 32.0112 20.7707C32.0112 21.7481 31.1559 22.6034 30.1785 22.6034C29.201 22.6034 28.3458 21.7481 28.3458 20.7707C28.3458 19.7932 29.201 18.938 30.1785 18.938Z" fill="#1B1918"/>
<path fill-rule="evenodd" clip-rule="evenodd" d="M71.4753 66.7104L72.2084 61.701H72.3306L74.4077 65.8552L76.3626 61.701H76.4847L77.2178 66.7104H76.7291L76.2404 63.1672L74.4077 66.7104H74.2855L72.4528 63.045L71.9641 66.7104H71.4753ZM80.5167 61.701H83.3268V62.1898H81.0054V63.7781H83.3268V64.2668H81.0054V66.2217H83.3268V66.7104H80.5167V61.701ZM89.8024 64.389V66.7104H89.1915V64.389L89.0693 64.2668L86.9923 66.7104H86.3814L88.825 63.9003L86.6257 61.701H87.3588L89.3137 63.7781V61.701H89.8024V63.7781L91.7573 61.701H92.4904L90.2911 63.9003L92.7347 66.7104H92.1238L90.0468 64.2668L89.8024 64.389ZM95.7893 61.701H96.278V63.5337L98.2329 61.701H98.9659L96.5223 63.9003L99.0881 66.7104H98.4772L96.278 64.389V66.7104H95.7893V61.701ZM104.586 61.5789C105.319 61.5789 105.93 61.8232 106.541 62.3119C107.03 62.8007 107.274 63.4116 107.274 64.1446C107.274 64.8777 107.03 65.4886 106.541 65.9774C106.052 66.4661 105.442 66.7104 104.708 66.7104C103.975 66.7104 103.364 66.4661 102.876 65.9774C102.387 65.4886 102.143 64.8777 102.143 64.1446C102.143 63.6559 102.265 63.1672 102.509 62.8007C102.754 62.4341 102.998 62.0676 103.487 61.8232C103.731 61.701 104.22 61.5789 104.586 61.5789ZM104.708 62.0676C104.342 62.0676 103.975 62.1898 103.609 62.3119C103.242 62.5563 102.998 62.8007 102.876 63.045C102.631 63.4116 102.631 63.7781 102.631 64.1446C102.631 64.7556 102.876 65.2443 103.242 65.6108C103.609 65.9774 104.098 66.2217 104.708 66.2217C105.075 66.2217 105.442 66.0995 105.808 65.9774C106.175 65.733 106.419 65.4886 106.541 65.2443C106.785 64.8777 106.785 64.5112 106.785 64.1446C106.785 63.7781 106.663 63.4116 106.541 63.045C106.297 62.6785 106.052 62.4341 105.808 62.3119C105.442 62.1898 105.075 62.0676 104.708 62.0676ZM110.573 66.7104L111.306 61.701H111.428L113.505 65.8552L115.46 61.701H115.582L116.316 66.7104H115.827L115.338 63.1672L113.628 66.7104H113.505L111.673 63.045L111.184 66.7104H110.573ZM119.614 61.701H120.103V63.7781H122.669V61.701H123.158V66.7104H122.669V64.2668H120.103V66.7104H119.614V61.701ZM128.778 61.701L131.099 66.7104H130.611L129.878 64.9999H127.678L126.945 66.7104H126.334L128.656 61.701H128.778ZM128.656 62.8007L127.801 64.6334H129.511L128.656 62.8007ZM133.176 62.1898V61.701H135.864V62.1898H134.765V66.7104H134.398V62.1898H133.176ZM139.163 61.701H139.652V63.7781H142.218V61.701H142.707V66.7104H142.218V64.2668H139.652V66.7104H139.163V61.701ZM146.372 61.701H146.861V63.9003H147.227C147.838 63.9003 148.327 63.9003 148.693 64.0225C148.938 64.1446 149.182 64.2668 149.426 64.5112C149.549 64.7555 149.671 64.9999 149.671 65.3665C149.671 65.733 149.549 65.9774 149.426 66.2217C149.304 66.4661 149.06 66.5883 148.816 66.7104C148.571 66.8326 148.082 66.8326 147.472 66.8326H146.494V61.701H146.372ZM146.861 66.2217H147.349C147.96 66.2217 148.327 66.2217 148.449 66.0995C148.571 66.0995 148.693 65.9774 148.816 65.8552C148.938 65.733 148.938 65.4886 148.938 65.2443C148.938 64.9999 148.816 64.7556 148.693 64.6334C148.571 64.5112 148.449 64.389 148.205 64.389C147.96 64.389 147.594 64.389 147.105 64.389H146.616V66.2217H146.861ZM150.16 61.701H150.648V66.7104H150.16V61.701ZM154.192 61.701H157.124V62.1898H154.802V63.7781H157.124V64.2668H154.802V66.2217H157.124V66.7104H154.314V61.701H154.192ZM164.21 67.4435H163.722V66.2217H164.088L166.043 61.701H166.165L168.242 66.2217H168.609V67.4435H168.12V66.7104H164.088V67.4435H164.21ZM164.699 66.2217H167.754L166.165 62.6785L164.699 66.2217ZM171.908 61.701H172.885C173.252 61.701 173.618 61.701 173.863 61.8232C174.107 61.9454 174.229 62.0676 174.351 62.3119C174.473 62.5563 174.473 62.6785 174.473 62.9228C174.473 63.1672 174.473 63.4116 174.351 63.5337C174.229 63.6559 174.107 63.9003 173.863 64.0225C174.107 64.1446 174.351 64.2668 174.473 64.389C174.596 64.5112 174.718 64.6334 174.84 64.8777C174.962 64.9999 174.962 65.2443 174.962 65.4886C174.962 65.8552 174.84 66.2217 174.473 66.4661C174.229 66.7104 173.74 66.8326 173.252 66.8326H171.908V61.701ZM172.396 62.1898V63.7781H172.641C173.007 63.7781 173.252 63.7781 173.374 63.6559C173.496 63.5337 173.618 63.5337 173.74 63.4116C173.863 63.2894 173.863 63.1672 173.863 62.9228C173.863 62.6785 173.74 62.5563 173.618 62.4341C173.496 62.3119 173.252 62.1898 172.885 62.1898H172.396ZM172.396 64.2668V66.2217H173.007C173.374 66.2217 173.618 66.2217 173.863 66.0995C173.985 65.9774 174.107 65.8552 174.229 65.733C174.351 65.6108 174.351 65.3665 174.351 65.2443C174.351 64.9999 174.229 64.8777 174.107 64.6334C173.985 64.5112 173.74 64.389 173.496 64.2668C173.374 64.2668 173.007 64.2668 172.641 64.2668H172.396ZM178.261 61.701H181.071V62.1898H178.75V63.7781H181.071V64.2668H178.75V66.2217H181.071V66.7104H178.261V61.701ZM184.614 61.701H185.592C186.203 61.701 186.569 61.701 186.692 61.8232C186.936 61.9454 187.18 62.0676 187.425 62.3119C187.547 62.5563 187.669 62.8007 187.669 63.1672C187.669 63.5337 187.547 63.7781 187.425 64.0225C187.302 64.2668 187.058 64.389 186.692 64.5112C186.447 64.5112 186.081 64.6334 185.47 64.6334H185.103V66.9548H184.614V61.701ZM185.103 62.1898V63.9003H185.958C186.325 63.9003 186.569 63.9003 186.692 63.7781C186.814 63.6559 186.936 63.6559 187.058 63.5337C187.18 63.4116 187.18 63.2894 187.18 63.045C187.18 62.9228 187.18 62.6785 187.058 62.5563C186.936 62.4341 186.814 62.3119 186.692 62.3119C186.569 62.3119 186.325 62.1898 185.958 62.1898H185.103ZM195 66.7104H194.511V62.9228L191.212 66.7104H191.09V61.701H191.579V65.6108L194.878 61.701H195V66.7104Z" fill="white"/>
<path fill-rule="evenodd" clip-rule="evenodd" d="M170.442 35.4323C172.641 35.4323 174.596 36.1654 176.184 37.7537C177.039 38.4868 177.528 39.4643 178.017 40.3195C178.383 41.297 178.628 42.2744 178.628 43.374C178.628 44.4737 178.383 45.5733 178.017 46.5507C177.65 47.5282 177.039 48.3834 176.184 49.2387C175.451 49.9718 174.474 50.5827 173.496 51.0714C172.519 51.4379 171.541 51.6823 170.442 51.6823C169.831 51.6823 169.22 51.5601 168.609 51.4379C167.998 51.3158 167.509 51.0714 166.898 50.827C166.41 50.5827 165.921 50.2161 165.432 49.8496C165.066 49.6052 164.699 49.2387 164.333 48.8721V56.4473H162.011V44.2293C162.011 41.6635 162.866 39.4643 164.333 37.8759C165.921 36.2876 167.876 35.4323 170.442 35.4323ZM170.319 37.6315C168.609 37.6315 167.265 38.2424 166.043 39.3421C165.432 39.953 165.066 40.5639 164.699 41.297C164.455 42.03 164.21 42.7631 164.21 43.6184C164.21 44.2293 164.333 44.718 164.455 45.2067C164.577 45.6955 164.821 46.1842 165.066 46.6729C165.31 47.1616 165.677 47.5282 166.043 47.8947C166.41 48.2612 166.776 48.5056 167.265 48.8721C167.754 49.1165 168.242 49.3609 168.731 49.4831C169.22 49.6052 169.709 49.7274 170.319 49.7274C170.808 49.7274 171.297 49.6052 171.786 49.4831C172.274 49.3609 172.763 49.1165 173.252 48.8721C173.741 48.6278 174.107 48.2612 174.474 47.8947C174.84 47.5282 175.207 47.1616 175.451 46.6729C175.695 46.1842 175.94 45.6955 176.062 45.2067C176.184 44.718 176.306 44.2293 176.306 43.7406C176.306 43.2518 176.184 42.7631 176.062 42.1522C175.94 41.6635 175.695 41.1748 175.451 40.6861C175.207 40.1973 174.84 39.8308 174.474 39.4643C174.107 39.0977 173.741 38.7312 173.252 38.4868C172.763 38.2424 172.274 37.9981 171.786 37.8759C171.419 37.7537 170.808 37.6315 170.319 37.6315ZM157.246 45.9398L159.079 46.9173L158.957 47.0394C158.712 47.5282 158.346 48.0169 158.101 48.5056C157.735 48.9943 157.491 49.3609 157.002 49.6052C156.635 49.9718 156.269 50.2161 155.78 50.4605C155.413 50.7049 154.925 50.9492 154.436 51.0714C153.947 51.1936 153.459 51.3158 152.97 51.4379C152.481 51.5601 151.87 51.5601 151.382 51.5601C150.038 51.5601 148.938 51.3158 147.96 50.9492C146.983 50.5827 146.128 49.9718 145.395 49.1165C144.662 48.2612 144.173 47.406 143.806 46.5507C143.44 45.5733 143.318 44.5958 143.318 43.6184C143.318 41.6635 143.928 39.953 145.15 38.3646C145.883 37.3872 146.861 36.6541 147.838 36.1654C148.938 35.6767 150.038 35.4323 151.382 35.4323C152.725 35.4323 153.947 35.6767 155.047 36.1654C156.147 36.6541 157.124 37.3872 157.857 38.3646C158.468 39.0977 158.835 39.8308 159.201 40.6861C159.445 41.5413 159.69 42.5188 159.69 43.6184V43.7406H145.761C145.761 44.5958 145.883 45.2067 146.25 45.9398C146.494 46.6729 146.983 47.2838 147.472 47.7725C147.96 48.2612 148.571 48.75 149.304 48.9943C149.915 49.2387 150.648 49.3609 151.504 49.3609C152.237 49.3609 152.97 49.2387 153.703 48.9943C154.069 48.8721 154.436 48.75 154.68 48.5056C154.925 48.3834 155.291 48.1391 155.536 47.8947C155.78 47.6503 156.024 47.406 156.391 47.0394C156.635 46.6729 157.002 46.3064 157.246 45.8176L157.368 45.6955L157.246 45.9398ZM156.88 41.7857C156.757 41.4191 156.635 40.9304 156.513 40.5639C156.269 40.1973 156.147 39.8308 155.902 39.4643C155.658 39.2199 155.413 38.8534 155.047 38.609C154.68 38.3646 154.314 38.1203 153.947 37.9981C153.581 37.7537 153.092 37.6315 152.725 37.6315C152.359 37.5094 151.87 37.5094 151.382 37.5094C150.648 37.5094 149.915 37.6315 149.304 37.8759C148.694 38.1203 148.083 38.4868 147.594 38.9755C147.227 39.3421 146.861 39.7086 146.616 40.1973C146.372 40.6861 146.128 41.1748 145.883 41.7857H156.88ZM135.131 51.1936H130.489V35.7988H135.131C136.842 35.7988 138.186 36.1654 138.919 37.0206C139.286 37.3872 139.652 37.8759 139.774 38.3646C140.019 38.8534 140.019 39.3421 140.019 39.8308C140.019 40.6861 139.897 41.297 139.53 41.9079C139.286 42.3966 138.797 42.7631 138.308 43.0075C139.163 43.374 139.774 43.8628 140.263 44.4737C140.752 45.2067 140.996 46.062 140.996 47.0394C140.996 48.5056 140.507 49.6052 139.53 50.3383C138.553 50.827 137.086 51.1936 135.131 51.1936ZM132.81 37.8759V42.2744H133.91C134.521 42.2744 135.009 42.2744 135.376 42.2744C135.742 42.2744 135.987 42.2744 136.231 42.1522C136.353 42.1522 136.598 42.03 136.72 41.9079C136.842 41.7857 137.086 41.6635 137.209 41.5413C137.331 41.4191 137.453 41.1748 137.575 40.9304C137.697 40.6861 137.697 40.4417 137.697 40.1973C137.697 39.953 137.697 39.5864 137.575 39.3421C137.453 39.0977 137.331 38.8534 137.209 38.7312C137.086 38.4868 136.842 38.3646 136.72 38.2424C136.598 38.1203 136.353 38.1203 136.231 37.9981C136.109 37.9981 135.742 37.8759 135.376 37.8759C135.009 37.8759 134.521 37.8759 133.91 37.8759H132.81ZM132.81 44.3515V49.3609H134.765C135.254 49.3609 135.742 49.3609 136.109 49.3609C136.475 49.3609 136.72 49.2387 136.964 49.2387C137.209 49.2387 137.331 49.1165 137.575 48.9943C137.697 48.8721 137.942 48.75 138.064 48.5056C138.186 48.2612 138.308 48.1391 138.43 47.8947C138.553 47.6503 138.553 47.406 138.553 47.0394C138.553 46.6729 138.43 46.3064 138.308 45.9398C138.186 45.6955 137.942 45.3289 137.697 45.0846C137.453 44.8402 137.209 44.718 136.842 44.5958C136.475 44.4737 136.109 44.4737 135.742 44.4737H132.81V44.3515ZM112.65 49.2387L118.637 35.7988H119.859L125.846 49.2387H127.801V53.1485H125.479V51.1936H113.017V53.1485H110.695V49.1165H112.65V49.2387ZM119.248 39.3421L114.972 49.2387H123.402L119.248 39.3421ZM108.13 44.3515V51.1936H105.808V48.8721C105.442 49.2387 105.075 49.6052 104.709 49.8496C104.22 50.2161 103.731 50.5827 103.242 50.827C102.754 51.0714 102.143 51.3158 101.532 51.4379C100.921 51.5601 100.31 51.6823 99.6992 51.6823C98.5995 51.6823 97.4999 51.4379 96.5225 51.0714C95.545 50.7049 94.6898 50.094 93.8345 49.2387C93.1014 48.5056 92.4905 47.5282 92.0018 46.6729C91.6353 45.6955 91.3909 44.718 91.3909 43.4962C91.3909 41.297 92.2462 39.2199 93.8345 37.7537C95.3007 36.2876 97.3777 35.4323 99.577 35.4323C101.288 35.4323 102.754 35.921 103.975 36.6541C105.319 37.5094 106.297 38.609 106.908 40.0752C107.274 40.6861 107.397 41.4191 107.641 42.1522C108.007 42.7631 108.13 43.6184 108.13 44.3515ZM99.9435 37.6315C99.4548 37.6315 98.8439 37.7537 98.3552 37.8759C97.8665 37.9981 97.3777 38.2424 96.889 38.4868C96.4003 38.7312 96.0338 39.0977 95.6672 39.4643C95.3007 39.8308 94.9341 40.1973 94.6898 40.6861C94.4454 41.1748 94.201 41.6635 94.0789 42.1522C93.9567 42.6409 93.8345 43.1297 93.8345 43.7406C93.8345 44.2293 93.9567 44.718 94.0789 45.2067C94.201 45.6955 94.4454 46.1842 94.6898 46.6729C94.9341 47.1616 95.3007 47.5282 95.6672 47.8947C96.0338 48.2612 96.4003 48.6278 96.889 48.8721C97.3777 49.1165 97.8665 49.3609 98.3552 49.4831C98.8439 49.6052 99.3326 49.7274 99.8213 49.7274C100.31 49.7274 100.921 49.6052 101.41 49.4831C101.898 49.3609 102.387 49.1165 102.876 48.8721C103.365 48.6278 103.731 48.2612 104.098 47.8947C104.464 47.5282 104.831 47.1616 105.075 46.6729C105.319 46.1842 105.564 45.6955 105.686 45.2067C105.808 44.718 105.93 44.2293 105.93 43.6184C105.93 42.7631 105.808 42.03 105.442 41.297C105.197 40.5639 104.709 39.953 104.098 39.3421C103.487 38.7312 102.876 38.3646 102.143 37.9981C101.654 37.7537 100.799 37.6315 99.9435 37.6315ZM90.5356 51.3158H88.092L81.2499 36.1654L74.2856 51.3158H71.5977C74.6522 44.3515 77.8289 37.8759 80.8834 30.9116H81.4943C84.5488 37.8759 87.6033 44.3515 90.6578 51.3158H90.5356ZM183.271 35.921V46.6729L194.389 35.7988H194.756V51.1936H192.434V40.3195L181.316 51.1936H180.827V35.7988H183.148V35.921H183.271Z" fill="white"/>
</g>
<defs>
<clipPath id="clip0">
<rect width="195" height="86.1372" fill="white"/>
</clipPath>
</defs>
</svg>
