<svg width="87" height="86" viewBox="0 0 87 86" fill="none" xmlns="http://www.w3.org/2000/svg">
<path d="M83.6346 2.35385H3.36539C2.8131 2.35385 2.36539 2.80157 2.36539 3.35385V70.9538C2.36539 71.5061 2.8131 71.9538 3.36538 71.9538H83.6346C84.1869 71.9538 84.6346 71.5061 84.6346 70.9538V3.35385C84.6346 2.80157 84.1869 2.35385 83.6346 2.35385Z" stroke="#fff" stroke-width="3" stroke-miterlimit="10"/>
<path d="M43.5 71.9539V84.4462" stroke="#fff" stroke-width="3" stroke-miterlimit="10"/>
<path d="M20.25 82.9462C19.4216 82.9462 18.75 83.6177 18.75 84.4462C18.75 85.2746 19.4216 85.9462 20.25 85.9462V82.9462ZM66.75 85.9462C67.5784 85.9462 68.25 85.2746 68.25 84.4462C68.25 83.6177 67.5784 82.9462 66.75 82.9462V85.9462ZM20.25 85.9462H66.75V82.9462H20.25V85.9462Z" fill="#fff"/>
<path d="M2.36539 63.0308H84.6346" stroke="#fff" stroke-width="3" stroke-miterlimit="10"/>
<path d="M43.5 53.6472C55.098 53.6472 64.5 44.2654 64.5 32.6923C64.5 21.1193 55.098 11.7375 43.5 11.7375C31.902 11.7375 22.5 21.1193 22.5 32.6923C22.5 44.2654 31.902 53.6472 43.5 53.6472Z" stroke="#fff" stroke-width="3" stroke-miterlimit="10"/>
<path d="M32.7179 41.744C32.1387 42.3363 32.1493 43.286 32.7415 43.8652C33.3338 44.4445 34.2835 44.4339 34.8627 43.8416L32.7179 41.744ZM54.9595 23.2933C55.5387 22.701 55.5282 21.7513 54.9359 21.1721C54.3436 20.5928 53.394 20.6034 52.8147 21.1956L54.9595 23.2933ZM34.8627 43.8416L54.9595 23.2933L52.8147 21.1956L32.7179 41.744L34.8627 43.8416Z" fill="#fff"/>
<path d="M50.5548 44.1185C52.7995 44.1185 54.6193 42.2988 54.6193 40.054C54.6193 37.8092 52.7995 35.9895 50.5548 35.9895C48.31 35.9895 46.4903 37.8092 46.4903 40.054C46.4903 42.2988 48.31 44.1185 50.5548 44.1185Z" stroke="#fff" stroke-width="3" stroke-miterlimit="10"/>
<path d="M37.2741 29.3136C39.5189 29.3136 41.3386 27.4939 41.3386 25.2491C41.3386 23.0043 39.5189 21.1846 37.2741 21.1846C35.0294 21.1846 33.2096 23.0043 33.2096 25.2491C33.2096 27.4939 35.0294 29.3136 37.2741 29.3136Z" stroke="#fff" stroke-width="3" stroke-miterlimit="10"/>
</svg>
