<svg width="100" height="73" fill="none" xmlns="http://www.w3.org/2000/svg"><path d="M34.953 17.493c-10.183 0-18.437 8.254-18.437 18.438 0 10.183 8.254 18.437 18.437 18.437 10.184 0 18.438-8.254 18.438-18.438-.013-10.177-8.26-18.425-18.438-18.437zm0 32.871c-7.972 0-14.434-6.462-14.434-14.433 0-7.972 6.462-14.434 14.434-14.434 7.972 0 14.434 6.462 14.434 14.434-.066 7.927-6.506 14.323-14.434 14.333v.1z" fill="#000"/><path d="M34.953 17.493c-10.183 0-18.437 8.254-18.437 18.438 0 10.183 8.254 18.437 18.437 18.437 10.184 0 18.438-8.254 18.438-18.438-.013-10.177-8.26-18.425-18.438-18.437zm0 32.871c-7.972 0-14.434-6.462-14.434-14.433 0-7.972 6.462-14.434 14.434-14.434 7.972 0 14.434 6.462 14.434 14.434-.066 7.927-6.506 14.323-14.434 14.333v.1z" stroke="#000"/><path d="M96.394 59.572H70.53V36.13C70.53 16.23 55.935.096 36.034.096 16.134.096 0 16.23 0 36.13c0 19.901 16.133 36.034 36.034 36.034h32.494a2.002 2.002 0 0 0 2.002-2.002v-6.586h23.862v6.586a2.002 2.002 0 0 0 4.004 0v-8.588a2.003 2.003 0 0 0-2.002-2.002zM66.526 68.16H36.034c-17.69 0-32.03-14.339-32.03-32.03 0-17.69 14.34-32.03 32.03-32.03 17.691 0 30.492 14.34 30.492 32.03v32.03z" fill="#000"/><path d="M96.394 59.572H70.53V36.13C70.53 16.23 55.935.096 36.034.096 16.134.096 0 16.23 0 36.13c0 19.901 16.133 36.034 36.034 36.034h32.494a2.002 2.002 0 0 0 2.002-2.002v-6.586h23.862v6.586a2.002 2.002 0 0 0 4.004 0v-8.588a2.003 2.003 0 0 0-2.002-2.002zM66.526 68.16H36.034c-17.69 0-32.03-14.339-32.03-32.03 0-17.69 14.34-32.03 32.03-32.03 17.691 0 30.492 14.34 30.492 32.03v32.03z" stroke="#000"/></svg>