<svg width="36" height="36" fill="none" xmlns="http://www.w3.org/2000/svg"><circle cx="18" cy="18" r="18" opacity=".2" fill="#C4C4C4"/><path d="M26.035 22.689c-.02-.044-.04-.081-.057-.11-.293-.527-.852-1.174-1.677-1.94l-.017-.018-.009-.009-.009-.009h-.009c-.374-.357-.611-.597-.71-.72-.183-.234-.223-.47-.124-.711.07-.181.334-.565.79-1.15.24-.31.43-.559.57-.746 1.014-1.346 1.453-2.207 1.318-2.581l-.052-.088c-.036-.053-.126-.1-.272-.145a1.383 1.383 0 0 0-.563-.022l-2.528.018a.328.328 0 0 0-.176.004l-.114.027-.044.022-.035.026a.39.39 0 0 0-.096.092.603.603 0 0 0-.088.154 14.343 14.343 0 0 1-.94 1.975c-.216.363-.415.678-.597.944a4.545 4.545 0 0 1-.456.588 3.182 3.182 0 0 1-.334.303c-.1.076-.175.108-.228.096a6.018 6.018 0 0 1-.15-.035.583.583 0 0 1-.197-.215.962.962 0 0 1-.1-.342 3.785 3.785 0 0 1-.027-.777c.006-.182.009-.305.009-.369 0-.222.004-.464.013-.724l.022-.62c.006-.151.009-.312.009-.482 0-.17-.01-.303-.031-.4a1.363 1.363 0 0 0-.092-.28.473.473 0 0 0-.18-.211 1.018 1.018 0 0 0-.294-.119 5.842 5.842 0 0 0-1.185-.114c-1.089-.011-1.789.059-2.099.211a1.183 1.183 0 0 0-.333.263c-.106.13-.12.2-.044.21.35.053.6.18.746.378l.053.106c.04.076.082.21.123.404.04.193.067.406.079.64.029.428.029.794 0 1.098-.03.304-.057.541-.084.711a1.425 1.425 0 0 1-.224.606.15.15 0 0 1-.044.044.659.659 0 0 1-.237.044c-.082 0-.181-.041-.298-.123a2.11 2.11 0 0 1-.364-.338 4.524 4.524 0 0 1-.426-.602 10.522 10.522 0 0 1-.492-.913l-.14-.254a21.96 21.96 0 0 1-.36-.716 13.795 13.795 0 0 1-.404-.909.579.579 0 0 0-.21-.28l-.045-.027a.931.931 0 0 0-.342-.132l-2.406.018c-.246 0-.412.056-.5.167l-.035.052a.284.284 0 0 0-.027.14.7.7 0 0 0 .053.238 28.98 28.98 0 0 0 1.146 2.388c.412.767.77 1.384 1.075 1.852.304.468.615.91.93 1.326.317.416.526.682.628.799.103.117.183.205.242.263l.22.21c.14.141.346.31.618.506.273.196.574.389.905.58.33.19.715.345 1.154.465.44.12.866.168 1.282.145h1.01c.204-.018.36-.083.465-.194l.035-.044a.582.582 0 0 0 .066-.162.89.89 0 0 0 .03-.241 2.892 2.892 0 0 1 .057-.68 1.79 1.79 0 0 1 .15-.457 1.12 1.12 0 0 1 .338-.386.585.585 0 0 1 .07-.031c.14-.047.306-.002.496.136s.369.308.536.51c.167.201.367.428.601.68.234.251.44.438.615.562l.175.105c.117.07.27.135.457.193.187.059.35.073.492.044l2.247-.035c.222 0 .395-.037.518-.11.123-.073.196-.154.22-.241a.681.681 0 0 0 .004-.299 1.103 1.103 0 0 0-.062-.232z" fill="#fff"/></svg>