<svg width="30" height="52" viewBox="0 0 30 52" fill="none" xmlns="http://www.w3.org/2000/svg">
<path d="M10.921 1.8136C10.921 1.35258 10.5463 0.980834 10.0842 0.98334L1.71575 1.02872C1.2536 1.03122 0.878904 1.40703 0.878904 1.86805L0.878906 50.2862C0.878906 50.7472 1.2536 51.119 1.71575 51.1165L10.0842 51.0711C10.5463 51.0686 10.921 50.6928 10.921 50.2318C10.921 47.9266 12.7944 46.0476 15.1052 46.0351C17.416 46.0226 19.2894 47.8812 19.2894 50.1864C19.2894 50.6474 19.6641 51.0192 20.1263 51.0167L28.4947 50.9713C28.9568 50.9688 29.3315 50.593 29.3315 50.1319L29.3315 1.71377C29.3315 1.25276 28.9568 0.881008 28.4947 0.883514L20.1263 0.928889C19.6641 0.931395 19.2894 1.30721 19.2894 1.76822C19.2894 4.07341 17.416 5.95236 15.1052 5.96489C12.7944 5.97742 10.921 4.11878 10.921 1.8136ZM15.9374 7.57529C18.5118 7.19277 20.5342 5.16421 20.9037 2.59427L27.6578 2.55764L27.6578 49.3062L20.9037 49.3428C20.4441 46.1508 17.4755 43.9488 14.273 44.4247C11.6987 44.8072 9.6762 46.8357 9.30674 49.4057L2.55259 49.4424L2.55259 2.69377L9.30673 2.65715C9.76637 5.84921 12.735 8.05117 15.9374 7.57529Z" fill="black"/>
</svg>
