<svg width="61" height="50" viewBox="0 0 61 50" fill="none" xmlns="http://www.w3.org/2000/svg">
<path fill-rule="evenodd" clip-rule="evenodd" d="M0.274902 0.641026C0.274902 0.286997 0.592824 0 0.985001 0H59.9232C60.3153 0 60.6333 0.286997 60.6333 0.641026C60.6333 0.995054 60.3153 1.28205 59.9232 1.28205H38.762V49.359C38.762 49.713 38.4441 50 38.0519 50C37.6598 50 37.3418 49.713 37.3418 49.359V1.28205H5.7861V49.359C5.7861 49.713 5.46818 50 5.076 50C4.68382 50 4.3659 49.713 4.3659 49.359V1.28205H0.985001C0.592824 1.28205 0.274902 0.995054 0.274902 0.641026ZM9.57263 5.60603C9.57263 5.1635 9.97003 4.80475 10.4603 4.80475H33.0396C33.5298 4.80475 33.9272 5.1635 33.9272 5.60604V49.1987C33.9272 49.6413 33.5298 50 33.0396 50H10.4603C9.97003 50 9.57263 49.6412 9.57263 49.1987V5.60603ZM10.9928 6.0868V48.7179H32.507V6.0868H10.9928ZM15.6134 23.8003C16.0056 23.8003 16.3235 24.0873 16.3235 24.4413V31.2574C16.3235 31.6114 16.0056 31.8984 15.6134 31.8984C15.2212 31.8984 14.9033 31.6114 14.9033 31.2574V24.4413C14.9033 24.0873 15.2212 23.8003 15.6134 23.8003Z" fill="black"/>
<path fill-rule="evenodd" clip-rule="evenodd" d="M58.4776 4.90196C58.4776 5.98487 57.4492 6.86275 56.1806 6.86275C54.912 6.86275 53.8836 5.98487 53.8836 4.90196C53.8836 3.81905 54.912 2.94118 56.1806 2.94118C57.4492 2.94118 58.4776 3.81905 58.4776 4.90196ZM52.2933 4.90196C52.2933 5.98487 51.2649 6.86275 49.9963 6.86275C48.7277 6.86275 47.6993 5.98487 47.6993 4.90196C47.6993 3.81905 48.7277 2.94118 49.9963 2.94118C51.2649 2.94118 52.2933 3.81905 52.2933 4.90196ZM49.9963 5.95777C50.6794 5.95777 51.2332 5.48507 51.2332 4.90196C51.2332 4.31885 50.6794 3.84615 49.9963 3.84615C49.3132 3.84615 48.7595 4.31885 48.7595 4.90196C48.7595 5.48507 49.3132 5.95777 49.9963 5.95777ZM56.1806 5.95777C56.8637 5.95777 57.4174 5.48507 57.4174 4.90196C57.4174 4.31885 56.8637 3.84615 56.1806 3.84615C55.4975 3.84615 54.9437 4.31885 54.9437 4.90196C54.9437 5.48507 55.4975 5.95777 56.1806 5.95777Z" fill="black"/>
</svg>
