<svg width="36" height="50" viewBox="0 0 36 50" fill="none" xmlns="http://www.w3.org/2000/svg">
<path fill-rule="evenodd" clip-rule="evenodd" d="M15.6856 19.5212C16.5117 18.097 17.7934 16.9895 19.326 16.3757C20.8586 15.7618 22.5537 15.6771 24.1403 16.135C25.727 16.5929 27.1137 17.567 28.079 18.9016C29.0442 20.2363 29.5322 21.8545 29.4651 23.4977C29.3979 25.1409 28.7795 26.7143 27.7085 27.9665C26.6376 29.2187 25.1759 30.0774 23.5572 30.4055C21.9384 30.7335 20.2558 30.512 18.7784 29.7763C17.3009 29.0405 16.1138 27.833 15.4067 26.3467L14.2928 26.8719C15.1179 28.6062 16.503 30.0151 18.227 30.8736C19.9509 31.7321 21.9142 31.9906 23.803 31.6078C25.6919 31.225 27.3974 30.223 28.647 28.7619C29.8966 27.3008 30.6182 25.4649 30.6966 23.5476C30.7749 21.6302 30.2055 19.742 29.0792 18.1847C27.953 16.6274 26.3349 15.4908 24.4835 14.9565C22.6321 14.4222 20.6543 14.5211 18.866 15.2373C17.0777 15.9536 15.5821 17.2458 14.6183 18.9077L15.6856 19.5212Z" fill="black"/>
<path fill-rule="evenodd" clip-rule="evenodd" d="M21.7709 39.4954C21.4136 39.327 21.1234 39.0441 20.9465 38.6922C20.7697 38.3402 20.7164 37.9393 20.7953 37.5537C20.8742 37.168 21.0806 36.8198 21.3817 36.5647C21.6827 36.3096 22.0609 36.1623 22.4559 36.1463C22.8509 36.1303 23.2399 36.2466 23.5607 36.4765C23.8816 36.7065 24.1157 37.0369 24.2258 37.4149C24.3358 37.7929 24.3154 38.1967 24.1679 38.5618C24.0203 38.9269 23.7541 39.2323 23.4117 39.4291C23.1169 39.5985 23.0159 39.9737 23.1861 40.2671C23.3563 40.5605 23.7332 40.6611 24.0279 40.4917C24.609 40.1577 25.0609 39.6395 25.3113 39.0198C25.5618 38.4002 25.5964 37.7148 25.4096 37.0733C25.2228 36.4318 24.8254 35.8711 24.2809 35.4808C23.7364 35.0905 23.0763 34.8932 22.4059 34.9203C21.7355 34.9474 21.0936 35.1975 20.5827 35.6304C20.0718 36.0634 19.7214 36.6544 19.5876 37.3089C19.4537 37.9634 19.5441 38.6437 19.8442 39.241C20.1443 39.8384 20.6369 40.3184 21.2433 40.6043C21.5509 40.7494 21.9184 40.6187 22.064 40.3125C22.2097 40.0063 22.0785 39.6405 21.7709 39.4954Z" fill="black"/>
<path fill-rule="evenodd" clip-rule="evenodd" d="M9.25653 0.766871C9.25653 0.343341 9.60142 0 10.0269 0H34.9856C35.411 0 35.7559 0.343348 35.7559 0.766873V49.2331C35.7559 49.6567 35.411 50 34.9856 50H10.0269C9.60142 50 9.25653 49.6567 9.25653 49.2331V27.3006H7.56181C7.22145 27.3006 6.94554 27.0259 6.94554 26.6871C6.94554 26.3483 7.22145 26.0736 7.56181 26.0736H21.1195C21.1195 26.0736 21.1196 26.0736 21.1196 26.6871C21.1196 27.3006 21.1195 27.3006 21.1195 27.3006H10.4891V48.773H34.5234V1.22699H10.4891V18.865H21.1196C21.693 18.865 22.6873 19.0681 23.5546 19.6769C24.4549 20.3089 25.2024 21.3709 25.2024 23.0061C25.2024 24.7043 24.4929 25.8077 23.5942 26.4676C22.7279 27.1038 21.7263 27.3006 21.1195 27.3006L21.1196 26.6871L21.1195 26.0736C21.5142 26.0736 22.246 25.933 22.8626 25.4802C23.4468 25.0512 23.9698 24.3141 23.9698 23.0061C23.9698 21.8039 23.4462 21.1022 22.8444 20.6797C22.2096 20.2341 21.4706 20.092 21.1196 20.092H3.69651C3.20389 20.1982 2.62492 20.4274 2.16833 20.8745C1.70972 21.3236 1.32213 22.0426 1.32213 23.2362C1.32213 24.308 1.75851 24.9861 2.26242 25.4161C2.79006 25.8663 3.40023 26.0492 3.69064 26.0763C4.02951 26.1079 4.27846 26.407 4.24669 26.7444C4.21493 27.0817 3.91446 27.3296 3.5756 27.2979C3.04432 27.2484 2.19087 26.9711 1.4603 26.3477C0.706007 25.7041 0.0895996 24.6951 0.0895996 23.2362C0.0895996 21.7457 0.587886 20.701 1.30403 19.9997C2.00431 19.314 2.86131 19.0065 3.51226 18.8769L3.5721 18.865H9.25653V0.766871ZM21.5818 39.4172C21.9222 39.4172 22.1981 39.6919 22.1981 40.0307V42.9448C22.1981 42.9643 22.2016 43.0034 22.2148 43.0494C22.2278 43.0946 22.2462 43.1329 22.2668 43.1615C22.2859 43.1878 22.3066 43.2059 22.3323 43.2192C22.3576 43.2321 22.4093 43.2515 22.5062 43.2515C22.6031 43.2515 22.6549 43.2321 22.6801 43.2192C22.7058 43.2059 22.7266 43.1878 22.7456 43.1615C22.7663 43.1329 22.7847 43.0946 22.7976 43.0494C22.8108 43.0034 22.8144 42.9643 22.8144 42.9448H23.4306C22.8144 42.9448 22.8144 42.9448 22.8144 42.9448V40.0307C22.8144 39.6919 23.0903 39.4172 23.4306 39.4172C23.771 39.4172 24.0469 39.6919 24.0469 40.0307V42.9447C24.0469 42.9447 24.0469 42.9448 23.67 42.9448L24.0469 42.9447C24.0469 43.1963 23.9761 43.56 23.7459 43.8784C23.4929 44.2281 23.0768 44.4785 22.5062 44.4785C21.9356 44.4785 21.5195 44.2281 21.2666 43.8784C21.0363 43.56 20.9656 43.1963 20.9656 42.9448V40.0307C20.9656 39.6919 21.2415 39.4172 21.5818 39.4172Z" fill="black"/>
</svg>
