<svg width="51" height="50" viewBox="0 0 51 50" fill="none" xmlns="http://www.w3.org/2000/svg">
<path fill-rule="evenodd" clip-rule="evenodd" d="M0 0.776398C0 0.347606 0.34968 0 0.781035 0H49.5176C49.9489 0 50.2986 0.347599 50.2986 0.776398V49.3789C50.2986 49.7219 50.0189 50 49.6738 50C49.3287 50 49.049 49.7219 49.049 49.3789V6.0559H33.7407V46.118C33.7407 46.5468 33.391 46.8944 32.9597 46.8944H27.0238V49.2236C27.0238 49.6524 26.6741 50 26.2428 50H0.781035C0.349682 50 0 49.6524 0 49.2236V0.776398ZM27.0238 45.6522H32.491V36.2578H27.0238V45.6522ZM27.0238 35.0155H32.491V21.4286H27.0238V35.0155ZM27.0238 20.1863H32.491V6.0559H27.0238V20.1863ZM25.7741 6.0559H5.77966V14.9845H25.7741V6.0559ZM25.7741 16.2267H5.77966V29.6584H25.7741V16.2267ZM25.7741 30.9006H5.77966V48.7578H25.7741V30.9006ZM4.53 48.7578V6.0559H1.24966V48.7578H4.53ZM1.24966 4.81366H49.049V1.24224H1.24966V4.81366Z" fill="#EE2318"/>
</svg>
