<svg width="29" height="50" viewBox="0 0 29 50" fill="none" xmlns="http://www.w3.org/2000/svg">
<path fill-rule="evenodd" clip-rule="evenodd" d="M1.21936 1.21212V48.7879H3.12461V3.78788C3.12461 3.36948 3.46582 3.0303 3.88671 3.0303H24.8445C25.2654 3.0303 25.6066 3.36948 25.6066 3.78788V48.7879H27.4356V1.21212H1.21936ZM24.3872 48.7879V45.1515H4.34397V48.7879H24.3872ZM4.34397 43.9394H7.77343V27.5758H4.34397V43.9394ZM4.34397 26.3636H7.77343V4.24242H4.34397V26.3636ZM8.99279 4.24242V43.9394H19.6622V4.24242H8.99279ZM20.8816 4.24242V43.9394H24.3872V4.24242H20.8816ZM0 0.757575C0 0.339175 0.341206 0 0.762101 0H27.8929C28.3138 0 28.655 0.339176 28.655 0.757576V49.2424C28.655 49.6608 28.3138 50 27.8929 50H0.762101C0.341204 50 0 49.6608 0 49.2424V0.757575Z" fill="black"/>
</svg>
