<svg width="34" height="50" viewBox="0 0 34 50" fill="none" xmlns="http://www.w3.org/2000/svg">
<path fill-rule="evenodd" clip-rule="evenodd" d="M1.28127 1.26958V2.75752H31.9517V1.26958H1.28127ZM0 0.682401C0 0.305523 0.308333 0 0.688684 0H32.5443C32.9247 0 33.233 0.305518 33.233 0.682401V3.3447C33.233 3.72158 32.9247 4.0271 32.5443 4.0271H32.1119V6.38979C32.1119 6.76667 31.8036 7.07219 31.4232 7.07219H30.9908V49.3652C30.9908 49.7158 30.704 50 30.3502 50C29.9963 50 29.7095 49.7158 29.7095 49.3652V7.07219H27.8677V49.2065C27.8677 49.6447 27.5092 50 27.0669 50H6.32745C5.88292 50 5.52346 49.6412 5.52668 49.2008L5.68563 27.465L5.53031 7.07219H3.84382V49.3652C3.84382 49.7158 3.557 50 3.20318 50C2.84937 50 2.56255 49.7158 2.56255 49.3652V7.07219H2.13012C1.74977 7.07219 1.44143 6.76667 1.44143 6.38979V4.0271H0.688684C0.308335 4.0271 0 3.72158 0 3.3447V0.682401ZM2.72271 4.0271V5.80261H30.8306V4.0271H2.72271ZM6.81162 7.07219L6.96211 26.8301H12.4924V28.0997H6.9623L6.81142 48.7304H26.5864V28.0997H21.2211V26.8301H26.5864V7.07219H6.81162ZM10.0099 9.84941V25.0844C10.0099 25.435 9.72312 25.7192 9.36931 25.7192C9.0155 25.7192 8.72867 25.435 8.72867 25.0844V9.37331C8.72867 8.93508 9.0872 8.57982 9.52947 8.57982H23.3032C23.7454 8.57982 24.104 8.93508 24.104 9.37331V25.0844C24.104 25.435 23.8171 25.7192 23.4633 25.7192C23.1095 25.7192 22.8227 25.435 22.8227 25.0844V9.84941H10.0099ZM9.36931 29.6867C9.72312 29.6867 10.0099 29.9709 10.0099 30.3214V46.0325H22.8227V30.3214C22.8227 29.9709 23.1095 29.6867 23.4633 29.6867C23.8171 29.6867 24.104 29.9709 24.104 30.3214V46.5086C24.104 46.9469 23.7454 47.3021 23.3032 47.3021H9.52947C9.0872 47.3021 8.72867 46.9469 8.72867 46.5086V30.3214C8.72867 29.9709 9.0155 29.6867 9.36931 29.6867Z" fill="black"/>
<path fill-rule="evenodd" clip-rule="evenodd" d="M19.1802 28.8388C19.833 28.3991 20.0331 27.9366 20.0331 27.6042C20.0331 27.2717 19.833 26.8092 19.1802 26.3695C18.5366 25.936 17.5721 25.625 16.4416 25.625C15.3111 25.625 14.3466 25.936 13.703 26.3695C13.0502 26.8092 12.8501 27.2717 12.8501 27.6042C12.8501 27.9366 13.0502 28.3991 13.703 28.8388C14.3466 29.2723 15.3111 29.5833 16.4416 29.5833C17.5721 29.5833 18.5366 29.2723 19.1802 28.8388ZM16.4416 30.9028C19.1464 30.9028 21.3391 29.4259 21.3391 27.6042C21.3391 25.7824 19.1464 24.3056 16.4416 24.3056C13.7368 24.3056 11.5441 25.7824 11.5441 27.6042C11.5441 29.4259 13.7368 30.9028 16.4416 30.9028Z" fill="black"/>
</svg>
