<svg width="48" height="49" viewBox="0 0 48 49" fill="none" xmlns="http://www.w3.org/2000/svg">
<path d="M37.7218 38.0661L37.7219 38.0662C40.5696 39.335 42.4917 40.1932 43.7084 41.1201C44.3116 41.5796 44.7309 42.0489 45.0014 42.5839C45.2716 43.1186 45.4002 43.733 45.4002 44.4936C45.4002 46.7456 43.3818 48.8 41.1857 48.8H6.81455C4.6185 48.8 2.60015 46.7456 2.60015 44.4936C2.60015 43.733 2.72869 43.1186 2.99892 42.5839C3.26933 42.0489 3.6887 41.5796 4.29175 41.1201C5.50835 40.1932 7.43033 39.335 10.2775 38.0662L10.2777 38.0661C10.324 38.0454 10.3704 38.0247 10.4171 38.0038C11.6452 37.4553 13.0312 36.8361 14.5997 36.1046C15.1181 36.6137 15.6874 37.0981 16.2939 37.545C14.2778 38.5003 12.5262 39.2862 11.0394 39.9501C8.23412 41.1999 6.6304 41.9565 5.73093 42.5755C5.27797 42.8873 4.98565 43.1757 4.81005 43.4904C4.63251 43.8087 4.58571 44.1334 4.58571 44.4929C4.58571 45.0214 4.83804 45.5855 5.23142 46.0151C5.62632 46.4463 6.18382 46.764 6.81455 46.764H41.1849C41.8156 46.764 42.3731 46.4463 42.768 46.015C43.1614 45.5854 43.4137 45.0213 43.4137 44.4929C43.4137 44.1335 43.367 43.8087 43.1895 43.4905C43.014 43.1757 42.7217 42.8873 42.2688 42.5756C41.3694 41.9566 39.7657 41.1999 36.9601 39.9501C35.4733 39.2861 33.7224 38.5002 31.7057 37.545C32.3127 37.0981 32.8815 36.6144 33.3998 36.1046C34.9252 36.8172 36.2794 37.422 37.4827 37.9593C37.563 37.9952 37.6427 38.0308 37.7218 38.0661Z" fill="#2F2F2F" stroke="white" stroke-width="0.4"/>
<path d="M38.2 14.7V14.9H38.4H40.8C42.0113 14.9 43 15.9033 43 17.1501V24.5001C43 25.7468 42.0113 26.7501 40.8 26.7501H38.4C37.6891 26.7501 37.0802 26.3791 36.6732 25.8248L36.4119 25.4688L36.3167 25.9C34.7908 32.809 29.8279 37.8355 24 37.8355C18.3096 37.8355 13.4347 33.0487 11.7869 26.3907L11.7757 26.3453L11.7455 26.3095C11.6901 26.2442 11.6476 26.1805 11.5984 26.1069C11.5783 26.0767 11.557 26.0449 11.5333 26.0106L11.3881 25.8005L11.2189 25.992C10.8117 26.453 10.244 26.75 9.60005 26.75H7.20005C5.98875 26.75 5.00005 25.7467 5.00005 24.5V17.15C5.00005 15.9033 5.98875 14.9 7.20005 14.9H9.60005H9.80005V14.7C9.80005 6.68805 16.1616 0.2 24 0.2C31.8385 0.2 38.2 6.68805 38.2 14.7ZM9.60005 24.7H9.80005V24.5V17.15V16.95H9.60005H7.20005H7.00005V17.15V24.5V24.7H7.20005H9.60005ZM14.9524 28.4732L14.4761 28.2616L14.6886 28.7376C16.5618 32.9318 20.0134 35.8001 24 35.8001C27.0051 35.8001 29.715 34.1731 31.6667 31.5763C33.6185 28.9796 34.8216 25.4034 34.8216 21.4677C34.8216 17.5321 33.6185 13.9559 31.6667 11.3591C29.715 8.76243 27.0051 7.13536 24 7.13536C20.995 7.13536 18.2851 8.76243 16.3334 11.3591C14.3816 13.9559 13.1785 17.5321 13.1785 21.4677C13.1785 22.7852 13.3241 24.0548 13.5754 25.2659L13.5899 25.3355L13.6451 25.3804C14.4289 26.0178 15.959 26.7645 17.8094 27.3514C19.6649 27.9399 21.8652 28.375 24 28.375C24.5489 28.375 25 28.8295 25 29.4C25 29.9705 24.5489 30.425 24 30.425C21.4701 30.425 17.7699 29.7248 14.9524 28.4732ZM35.7816 15.0559L36.1712 14.9971C36.172 14.9616 36.1771 14.926 36.1844 14.8752L36.1845 14.8745C36.1913 14.8273 36.2 14.7659 36.2 14.7C36.2 7.83882 30.7312 2.25 24 2.25C17.2689 2.25 11.8 7.83882 11.8 14.7C11.8 14.7659 11.8088 14.8272 11.8155 14.8745L11.8157 14.8757C11.8229 14.9262 11.828 14.9618 11.8289 14.9973L12.2185 15.0559C14.1847 9.1825 18.7438 5.1 24 5.1C29.2563 5.1 33.8154 9.1825 35.7816 15.0559ZM40.8 24.7H41V24.5V17.15V16.95H40.8H38.4H38.2V17.15V24.5V24.7H38.4H40.8Z" fill="#2F2F2F" stroke="white" stroke-width="0.4"/>
</svg>
