<svg width="64" height="47" viewBox="0 0 64 47" fill="none" xmlns="http://www.w3.org/2000/svg">
<path d="M22.7194 32.8742H22.9194V32.8068C28.0901 32.6946 32.2582 28.4898 32.3013 23.294V23.2923C32.3013 18.0001 28.0116 13.7104 22.7194 13.7104C17.4273 13.7104 13.1376 18.0001 13.1376 23.2923C13.1376 28.5844 17.4273 32.8742 22.7194 32.8742ZM10.9351 23.2923C10.9351 16.7837 16.2108 11.508 22.7193 11.508C29.2244 11.5158 34.496 16.7875 34.5038 23.2925C34.5036 29.8015 29.2284 35.0766 22.7194 35.0766C16.2108 35.0766 10.9351 29.8014 10.9351 23.2923Z" fill="black" stroke="white" stroke-width="0.4"/>
<path d="M45.6443 38.6595V38.8595H45.8443H62.6562C63.2641 38.8595 63.7574 39.3532 63.7574 39.9608V45.543C63.7574 46.1511 63.2642 46.6443 62.6562 46.6443C62.0482 46.6443 61.5549 46.1511 61.5549 45.543V41.262V41.062H61.3549H45.8443H45.6443V41.262V45.543C45.6443 46.1511 45.1511 46.6443 44.5431 46.6443H23.4221C10.597 46.6443 0.2 36.2473 0.2 23.4221C0.2 10.5974 10.597 0.2 23.4221 0.2C36.236 0.2 45.6443 10.5853 45.6443 23.4221V38.6595ZM43.2418 44.4418H43.4418V44.2418V23.4221C43.4418 11.8262 35.0445 2.40246 23.4221 2.40246C11.8125 2.40246 2.40246 11.813 2.40246 23.4221C2.40246 35.0318 11.8125 44.4418 23.4221 44.4418H43.2418Z" fill="black" stroke="white" stroke-width="0.4"/>
</svg>
