<svg width="50" height="50" viewBox="0 0 50 50" fill="none" xmlns="http://www.w3.org/2000/svg">
<path d="M36.7175 8.7171C36.7175 6.72136 35.0938 5.09799 33.0984 5.09799C31.1029 5.09799 29.4792 6.72136 29.4792 8.7171C29.4792 10.7128 31.1029 12.3359 33.0984 12.3359C35.0938 12.3359 36.7175 10.7128 36.7175 8.7171ZM33.0984 10.491C32.1203 10.491 31.3245 9.6949 31.3245 8.7171C31.3245 7.73872 32.1203 6.94295 33.0984 6.94295C34.0765 6.94295 34.8722 7.73872 34.8722 8.7171C34.8722 9.6949 34.0765 10.491 33.0984 10.491Z" fill="#2F2F2F"/>
<path d="M13.5168 19.3029C13.5168 17.1278 11.7473 15.3588 9.57265 15.3588C7.39745 15.3588 5.62817 17.1278 5.62817 19.3029C5.62817 21.4778 7.39774 23.2474 9.57265 23.2474C11.7473 23.2474 13.5168 21.4778 13.5168 19.3029ZM9.57265 21.4019C8.41539 21.4019 7.47371 20.4602 7.47371 19.3029C7.47371 18.1454 8.41539 17.2037 9.57265 17.2037C10.7299 17.2037 11.6716 18.1454 11.6716 19.3029C11.6716 20.4602 10.7299 21.4019 9.57265 21.4019Z" fill="#2F2F2F"/>
<path d="M44.9396 28.1347C41.7938 25.5539 37.2273 25.5539 34.0811 28.1347C31.1924 30.5045 29.8985 34.8756 31.0053 38.5276C31.9673 41.7024 34.4234 44.3251 36.9867 46.5768H25.714L11.2181 34.7004L19.2719 30.3205C20.3125 29.7546 19.4324 28.1321 18.3904 28.6994L10.4949 32.9931V30.6677C12.9304 28.6596 15.8933 26.1674 17.0411 22.7928C18.1834 19.4345 17.0566 15.2708 14.4196 13.1079C11.6111 10.8037 7.53365 10.8037 4.72523 13.1079C2.15043 15.22 0.9969 19.1155 1.98302 22.3699C3.00927 25.756 5.93981 28.4265 8.64992 30.6674V34.5448C8.64992 34.8177 8.77691 35.0854 8.98789 35.2585L24.7996 48.2131C24.9644 48.3481 25.1714 48.4221 25.3844 48.4221H39.5105C39.8376 48.4221 40.0629 48.2406 40.3031 48.0428C43.0903 45.7452 46.559 42.8869 47.8796 39.0041C49.1621 35.2342 47.8982 30.5616 44.9396 28.1347ZM3.74886 21.8347C2.98261 19.3055 3.90537 16.1669 5.89567 14.5343C6.9609 13.6603 8.26665 13.2237 9.57268 13.2237C10.8784 13.2237 12.1839 13.6603 13.2494 14.5343C15.289 16.2073 16.1868 19.5738 15.2942 22.1982C14.347 24.9829 11.8683 27.1383 9.57325 29.036C7.14494 27.0124 4.59823 24.6366 3.74886 21.8347ZM46.1327 38.4095C45.0339 41.6402 42.1547 44.1201 39.5111 46.3039C36.7133 43.9782 33.7558 41.2409 32.7714 37.9927C31.8862 35.0719 32.9525 31.4474 35.2519 29.5611C36.4381 28.5882 37.9505 28.0524 39.5105 28.0524C41.0708 28.0524 42.5832 28.5882 43.7695 29.5611C46.125 31.4935 47.1632 35.3807 46.1327 38.4095Z" fill="#2F2F2F"/>
<path d="M39.5105 30.7219C37.1083 30.7219 35.1538 32.676 35.1538 35.0783C35.1538 37.4808 37.1083 39.4352 39.5105 39.4352C41.913 39.4352 43.8675 37.4808 43.8675 35.0783C43.8675 32.676 41.913 30.7219 39.5105 30.7219ZM39.5105 37.59C38.1256 37.59 36.9988 36.4634 36.9988 35.0783C36.9988 33.6937 38.1256 32.5668 39.5105 32.5668C40.8954 32.5668 42.022 33.6937 42.022 35.0783C42.022 36.4634 40.8954 37.59 39.5105 37.59Z" fill="#2F2F2F"/>
<path d="M25.373 26.8754C25.5221 26.8754 25.6732 26.8393 25.8134 26.763L33.5395 22.5617C33.8365 22.4 34.0213 22.0893 34.0213 21.751V18.9056C36.1974 17.1108 38.8298 14.884 39.8578 11.8632C40.8898 8.82918 39.8707 5.06646 37.4874 3.11171C34.9444 1.02567 31.2533 1.02567 28.7101 3.11171C26.3824 5.02116 25.3398 8.54166 26.231 11.4828C27.1501 14.5163 29.7567 16.9027 32.1758 18.9051V21.2024L24.9313 25.142C24.112 25.588 24.4394 26.8754 25.373 26.8754ZM27.9972 10.9476C27.3241 8.72684 28.1336 5.97145 29.8802 4.53842C30.8127 3.77332 31.9557 3.39092 33.0986 3.39092C34.2415 3.39092 35.3844 3.77332 36.3169 4.53842C38.1071 6.00671 38.8952 8.96334 38.1109 11.269C37.2827 13.7024 35.1193 15.6016 33.0997 17.2734C30.9632 15.4886 28.7393 13.3986 27.9972 10.9476Z" fill="#2F2F2F"/>
<path d="M22.1028 28.5478C22.6047 28.5478 23.0256 28.1264 23.0256 27.625C23.0256 27.1234 22.6047 26.7023 22.1028 26.7023C21.6158 26.7023 21.2038 27.099 21.182 27.5846C21.1591 28.1006 21.5854 28.5478 22.1028 28.5478Z" fill="#2F2F2F"/>
</svg>
