<?xml version="1.0" standalone="no"?>
<!DOCTYPE svg PUBLIC "-//W3C//DTD SVG 20010904//EN"
 "http://www.w3.org/TR/2001/REC-SVG-20010904/DTD/svg10.dtd">
<svg version="1.0" xmlns="http://www.w3.org/2000/svg"
 width="696.000000pt" height="696.000000pt" viewBox="0 0 696.000000 696.000000"
 preserveAspectRatio="xMidYMid meet">
<metadata>
Created by potrace 1.14, written by Peter Selinger 2001-2017
</metadata>
<g transform="translate(0.000000,696.000000) scale(0.100000,-0.100000)"
fill="#000000" stroke="none">
<path d="M750 6925 c-12 -19 -28 -42 -36 -50 -8 -8 -15 -18 -16 -22 0 -4 -11
-24 -23 -43 -53 -86 -143 -338 -129 -362 3 -4 2 -8 -3 -8 -15 0 -23 -249 -11
-340 8 -58 35 -176 49 -215 6 -16 14 -39 18 -50 15 -44 116 -235 123 -235 4 0
8 -5 8 -11 0 -32 161 -209 270 -299 30 -25 57 -48 58 -52 2 -5 8 -8 13 -8 5 0
33 -16 63 -35 30 -19 59 -35 64 -35 5 0 15 -7 22 -15 6 -8 15 -14 18 -13 4 1
30 -9 57 -21 55 -26 75 -32 185 -62 96 -26 157 -32 305 -31 103 1 236 20 310
45 6 2 30 10 55 17 25 8 80 31 123 52 43 21 80 38 83 38 3 0 10 5 17 10 13 11
405 268 435 285 9 5 31 19 47 31 17 11 35 23 40 25 6 2 53 30 107 62 53 31
101 57 106 57 6 0 12 4 14 8 4 10 277 145 302 149 11 2 26 9 34 15 8 7 19 13
26 14 15 3 178 64 189 71 14 9 -162 172 -246 229 -40 27 -80 57 -91 67 -11 9
-25 17 -32 17 -6 0 -22 8 -35 18 -59 44 -326 149 -424 167 -11 2 -20 4 -20 5
0 2 -19 6 -65 14 -19 3 -46 8 -60 11 -43 9 -152 22 -247 30 -46 4 -221 10
-573 20 -168 5 -240 9 -320 19 -107 14 -126 17 -172 31 -26 7 -48 11 -48 8 0
-3 -6 0 -13 6 -8 6 -16 8 -20 5 -5 -6 -15 -2 -141 55 -131 59 -255 165 -345
293 l-49 69 -22 -36z"/>
<path d="M6270 6716 c-36 -13 -141 -54 -235 -91 -93 -36 -174 -67 -180 -69 -5
-2 -23 -8 -40 -15 -16 -6 -43 -16 -60 -22 -16 -6 -43 -17 -60 -24 -16 -7 -55
-21 -85 -31 -30 -11 -57 -21 -60 -25 -5 -5 -124 -48 -148 -53 -7 -1 -18 -8
-24 -14 -7 -7 -19 -12 -28 -12 -8 0 -47 -13 -85 -29 -89 -36 -108 -43 -120
-47 -5 -1 -152 -57 -325 -123 -173 -67 -360 -139 -415 -160 -55 -21 -109 -42
-120 -46 -11 -5 -22 -9 -25 -10 -3 -1 -14 -5 -25 -10 -11 -4 -60 -23 -110 -42
-49 -19 -118 -46 -152 -59 -34 -13 -63 -24 -66 -24 -2 0 -22 -8 -43 -17 -22
-9 -41 -17 -44 -18 -7 -2 -34 -13 -100 -38 -30 -12 -57 -22 -60 -23 -19 -3
-72 -27 -223 -98 -65 -31 -123 -56 -128 -56 -5 0 -9 -4 -9 -10 0 -5 -4 -10
-10 -10 -5 0 -32 -14 -59 -30 -49 -30 -56 -45 -34 -71 14 -18 43 -104 44 -132
9 -203 -189 -358 -381 -298 -67 21 -139 76 -169 128 -8 15 -19 9 -82 -43 -252
-206 -454 -445 -551 -654 -26 -56 -71 -190 -82 -245 -3 -16 -8 -43 -12 -60
-15 -73 -12 -256 6 -339 10 -46 23 -93 28 -103 5 -10 25 -52 45 -94 64 -137
203 -303 413 -494 95 -86 181 -164 200 -180 230 -198 457 -433 576 -595 94
-128 262 -420 241 -420 -3 0 0 -6 6 -14 12 -14 87 -229 95 -269 2 -12 7 -40
11 -62 4 -22 9 -49 11 -60 17 -85 22 -266 10 -365 -15 -134 -65 -308 -124
-430 -33 -68 -119 -218 -132 -230 -3 -3 -27 -32 -52 -65 -44 -58 -165 -185
-261 -273 -49 -45 -60 -77 -29 -86 73 -22 409 -22 537 0 93 16 138 25 195 39
257 65 538 206 749 378 70 56 227 209 276 268 45 53 145 188 145 195 0 4 11
22 24 39 14 18 51 83 84 146 49 96 65 130 87 189 1 3 6 16 12 30 6 14 21 59
34 100 28 91 27 88 34 125 3 17 10 44 15 60 5 17 12 54 15 84 4 30 9 63 11 75
8 42 19 274 14 296 0 3 -3 39 -5 81 -5 84 -19 181 -40 270 -7 33 -14 62 -14
64 -6 42 -51 187 -64 203 -5 6 -7 12 -4 12 21 0 -179 413 -214 440 -3 3 -12
15 -18 28 -14 26 -17 30 -97 127 -82 99 -181 192 -316 295 -64 50 -119 90
-122 90 -8 0 -229 156 -253 179 -12 12 -26 21 -30 21 -23 0 -226 226 -262 290
-41 74 -61 117 -61 131 0 9 -3 19 -7 23 -23 23 -25 204 -3 276 50 164 193 354
404 535 32 28 68 59 81 70 13 11 33 27 45 35 12 8 32 23 44 32 19 14 282 193
336 228 8 5 32 21 53 35 21 14 40 25 43 25 3 0 10 5 17 11 7 5 84 57 172 114
88 57 165 108 171 113 5 5 21 15 35 22 13 7 26 16 29 19 3 3 70 49 150 101 80
52 147 98 148 103 2 4 8 7 13 7 4 0 83 50 174 110 90 61 167 110 170 110 3 0
11 5 18 11 7 5 136 92 287 193 242 161 275 186 272 207 -5 48 -39 54 -122 25z"/>
<path d="M2905 5428 c-45 -12 -98 -66 -100 -100 0 -3 -3 -9 -7 -13 -4 -4 -2
-19 3 -34 6 -14 10 -27 9 -29 -7 -11 26 -61 53 -79 44 -30 89 -36 135 -18 102
41 126 164 48 242 -14 14 -26 22 -26 18 0 -4 -6 -2 -14 4 -19 16 -65 20 -101
9z"/>
</g>
</svg>
